<svg width="24" height="23" viewBox="0 0 24 23" fill="none" xmlns="http://www.w3.org/2000/svg">
<path fill-rule="evenodd" clip-rule="evenodd" d="M24 11.5C24 11.822 23.8695 12.1308 23.6371 12.3585C23.4047 12.5862 23.0896 12.7141 22.761 12.7141H4.23221L9.55255 17.9248C9.66775 18.0377 9.75913 18.1717 9.82148 18.3192C9.88382 18.4667 9.91591 18.6248 9.91591 18.7844C9.91591 18.944 9.88382 19.1021 9.82148 19.2496C9.75913 19.3971 9.66775 19.5311 9.55255 19.644C9.43735 19.7568 9.30059 19.8464 9.15008 19.9075C8.99956 19.9686 8.83824 20 8.67533 20C8.51241 20 8.35109 19.9686 8.20058 19.9075C8.05006 19.8464 7.9133 19.7568 7.7981 19.644L0.364007 12.3596C0.248622 12.2468 0.157076 12.1128 0.0946139 11.9653C0.0321515 11.8178 0 11.6597 0 11.5C0 11.3403 0.0321515 11.1822 0.0946139 11.0347C0.157076 10.8872 0.248622 10.7532 0.364007 10.6404L7.7981 3.35604C8.03076 3.12807 8.3463 3 8.67533 3C9.00435 3 9.3199 3.12807 9.55255 3.35604C9.7852 3.58401 9.91591 3.8932 9.91591 4.2156C9.91591 4.538 9.7852 4.84719 9.55255 5.07516L4.23221 10.2859H22.761C23.0896 10.2859 23.4047 10.4138 23.6371 10.6415C23.8695 10.8692 24 11.178 24 11.5Z" fill="#444444"/>
</svg>
