<svg width="32" height="25" viewBox="0 0 32 25" fill="none" xmlns="http://www.w3.org/2000/svg">
<g filter="url(#filter0_d_1227_438)">
<path fill-rule="evenodd" clip-rule="evenodd" d="M28 8.5C28 8.82199 27.8695 9.13079 27.6371 9.35848C27.4047 9.58616 27.0896 9.71407 26.761 9.71407H8.23222L13.5526 14.9248C13.6677 15.0377 13.7591 15.1717 13.8215 15.3192C13.8838 15.4667 13.9159 15.6248 13.9159 15.7844C13.9159 15.944 13.8838 16.1021 13.8215 16.2496C13.7591 16.3971 13.6677 16.5311 13.5526 16.644C13.4374 16.7568 13.3006 16.8464 13.1501 16.9075C12.9996 16.9686 12.8382 17 12.6753 17C12.5124 17 12.3511 16.9686 12.2006 16.9075C12.0501 16.8464 11.9133 16.7568 11.7981 16.644L4.36401 9.35956C4.24862 9.24678 4.15708 9.11281 4.09461 8.96531C4.03215 8.81781 4 8.65969 4 8.5C4 8.34031 4.03215 8.18219 4.09461 8.03469C4.15708 7.88719 4.24862 7.75322 4.36401 7.64044L11.7981 0.356041C12.0308 0.128072 12.3463 0 12.6753 0C13.0043 0 13.3199 0.128072 13.5526 0.356041C13.7852 0.584011 13.9159 0.893204 13.9159 1.2156C13.9159 1.538 13.7852 1.84719 13.5526 2.07516L8.23222 7.28593H26.761C27.0896 7.28593 27.4047 7.41384 27.6371 7.64153C27.8695 7.86921 28 8.17801 28 8.5Z" fill="#444444"/>
<path d="M8.23221 9.21407H7.00712L7.88236 10.0713L13.2026 15.282C13.2709 15.3489 13.3245 15.4278 13.3609 15.5139C13.3973 15.6 13.4159 15.6919 13.4159 15.7844C13.4159 15.8769 13.3973 15.9688 13.3609 16.0549C13.3245 16.141 13.2709 16.2199 13.2026 16.2868C13.1343 16.3538 13.0526 16.4074 12.962 16.4442C12.8714 16.4809 12.774 16.5 12.6753 16.5C12.5767 16.5 12.4792 16.4809 12.3886 16.4442C12.298 16.4074 12.2164 16.3538 12.148 16.2868L4.71395 9.00243L4.7135 9.00199C4.64514 8.93518 4.59146 8.85636 4.55503 8.77033C4.51861 8.68433 4.5 8.59249 4.5 8.5C4.5 8.40751 4.51861 8.31567 4.55503 8.22967C4.59146 8.14364 4.64514 8.06483 4.7135 7.99801L4.71395 7.99757L12.148 0.713172C12.2862 0.577813 12.4757 0.5 12.6753 0.5C12.875 0.5 13.0645 0.577813 13.2026 0.713172C13.3404 0.848193 13.4159 1.02913 13.4159 1.2156C13.4159 1.40203 13.3404 1.58294 13.2027 1.71795C13.2027 1.71798 13.2026 1.718 13.2026 1.71803L7.88236 6.92872L7.00712 7.78593H8.23221H26.761C26.9602 7.78593 27.1493 7.86358 27.2872 7.99866C27.4247 8.13339 27.5 8.31394 27.5 8.5C27.5 8.68606 27.4247 8.86661 27.2872 9.00134C27.1493 9.13642 26.9602 9.21407 26.761 9.21407H8.23221Z" stroke="black"/>
</g>
<defs>
<filter id="filter0_d_1227_438" x="0" y="0" width="32" height="25" filterUnits="userSpaceOnUse" color-interpolation-filters="sRGB">
<feFlood flood-opacity="0" result="BackgroundImageFix"/>
<feColorMatrix in="SourceAlpha" type="matrix" values="0 0 0 0 0 0 0 0 0 0 0 0 0 0 0 0 0 0 127 0" result="hardAlpha"/>
<feOffset dy="4"/>
<feGaussianBlur stdDeviation="2"/>
<feComposite in2="hardAlpha" operator="out"/>
<feColorMatrix type="matrix" values="0 0 0 0 0 0 0 0 0 0 0 0 0 0 0 0 0 0 0.25 0"/>
<feBlend mode="normal" in2="BackgroundImageFix" result="effect1_dropShadow_1227_438"/>
<feBlend mode="normal" in="SourceGraphic" in2="effect1_dropShadow_1227_438" result="shape"/>
</filter>
</defs>
</svg>
