<svg width="44" height="20" viewBox="0 0 44 20" fill="none" xmlns="http://www.w3.org/2000/svg">
<g clip-path="url(#clip0_831_462)">
<path d="M0 1.66449V18.3355H3.6762V1.66449H0ZM6.82495 1.66449V18.3355H7.70821V1.66449H6.82495ZM8.94733 1.66449V18.3355H11.742V1.66449H8.94733ZM14.5815 1.66449V18.3355H15.774V1.66449H14.5815ZM18.9246 1.66449V18.3355H19.8061V1.66449H18.9246ZM20.1851 1.66449V18.3355H23.8381V1.66449H20.1851ZM26.0302 1.66449V18.3355H27.8701V1.66449H26.0302ZM31.4945 1.66449V18.3355H31.9021V1.66449H31.4945ZM34.7076 1.66449V18.3355H35.9359V1.66449H34.7076ZM39.0847 1.66449V18.3355H39.968V1.66449H39.0847ZM40.347 1.66449V18.3355H44V1.66449H40.347Z" fill="#444444"/>
</g>
<defs>
<clipPath id="clip0_831_462">
<rect width="44" height="20" fill="white"/>
</clipPath>
</defs>
</svg>
