<svg width="61" height="61" viewBox="0 0 61 61" fill="none" xmlns="http://www.w3.org/2000/svg">
<path d="M26.2158 16.8417C26.2158 13.6154 27.1785 11.0038 30.2285 11.0038C33.2737 11.0038 34.2411 13.6154 34.2411 16.8417H26.2158Z" fill="#ED6C30"/>
<path d="M33.8644 18.0999H26.5969C25.8391 18.0999 25.2244 18.7146 25.2244 19.4676V22.0696C25.2244 22.8274 25.8344 23.4421 26.5969 23.4421H33.8692C34.6222 23.4421 35.2369 22.8274 35.2369 22.0696V19.4676C35.2342 19.1049 35.0885 18.7579 34.8316 18.5018C34.5747 18.2458 34.2272 18.1013 33.8644 18.0999Z" fill="#2F2F2F"/>
<path d="M23.5421 13.3485L17.3611 10.513C17.1609 10.4224 16.9226 10.4272 16.7273 10.5368C16.5319 10.6417 16.3984 10.8418 16.3651 11.061L15.8265 14.9403C15.7932 15.1595 15.8694 15.3835 16.0315 15.5407C16.1649 15.6742 16.346 15.7456 16.5319 15.7456C16.57 15.7456 16.6033 15.7409 16.6415 15.7361L23.3515 14.6972C23.666 14.6496 23.9043 14.4065 23.9472 14.092C23.9901 13.7822 23.8233 13.482 23.5421 13.3485ZM44.0962 11.0658C44.0676 10.8466 43.9342 10.6464 43.7388 10.5416C43.5434 10.432 43.3051 10.4224 43.1002 10.5178L36.9192 13.3533C36.6333 13.482 36.4712 13.7822 36.5141 14.092C36.557 14.4017 36.7953 14.6448 37.1051 14.6972L43.8198 15.7409C43.858 15.7456 43.8913 15.7504 43.9294 15.7504C44.1105 15.7504 44.2916 15.6789 44.4251 15.5455C44.5823 15.3882 44.6586 15.1642 44.63 14.945L44.0962 11.0658Z" fill="#ED6C30"/>
<path d="M58.1503 37.2005C55.92 34.9702 52.4315 34.2792 52.4315 34.2792C52.4315 34.2792 50.6063 29.5374 49.0718 27.4738C44.8828 21.8504 39.6453 20.597 31.1578 20.597C25.2913 20.597 19.4677 20.8163 14.6973 26.8257C12.8721 29.1275 9.87926 34.2792 9.87926 34.2792C9.87926 34.2792 4.59418 34.8272 2.18278 37.5102C0.333713 39.5738 -0.538397 47.032 1.90637 49.472C3.96988 51.5355 6.2002 52.6268 7.81574 52.8031C7.81574 52.6173 7.82527 52.4362 7.84434 52.2551C7.89676 51.6975 8.02067 51.159 8.20652 50.6491C9.10246 48.1805 11.4662 46.4077 14.2446 46.4077C17.0182 46.4077 19.3819 48.1805 20.2779 50.6538C20.5257 51.3353 20.6686 52.0692 20.6686 52.8365H40.3459C40.3459 52.0692 40.4889 51.3353 40.7367 50.6538C41.6326 48.1805 43.9964 46.4077 46.7747 46.4077C49.5483 46.4077 51.9121 48.1805 52.808 50.6538C53.0511 51.3306 53.194 52.0645 53.194 52.827V52.8365H53.5943C56.0582 52.8365 58.1312 51.5974 59.4275 49.5244C61.6578 45.9549 60.3806 39.4308 58.1503 37.2005Z" fill="#2F2F2F"/>
<path d="M2.93091 41.2322C3.15013 40.2076 3.45989 39.364 3.80778 38.9685C5.30895 37.2958 8.86888 36.5762 10.1079 36.4475C10.799 36.376 11.4185 35.9757 11.7711 35.3752C11.7997 35.3228 14.702 30.3332 16.4129 28.1791C20.3922 23.1609 25.0339 22.7749 31.1577 22.7749C40.0122 22.7749 43.9343 24.2332 47.3227 28.7748C48.4331 30.2665 49.9152 33.8169 50.3918 35.0607C50.5239 35.4024 50.7398 35.7054 51.0196 35.9418C51.2994 36.1783 51.6341 36.3407 51.993 36.4141C52.0216 36.4237 54.8857 37.0289 56.6014 38.7445C57.097 39.2401 57.545 40.1456 57.869 41.2322H2.93091Z" fill="white"/>
<path d="M14.2396 48.0471C12.3811 48.0471 10.7893 49.1146 9.99824 50.6539C9.67636 51.2687 9.49565 51.9476 9.46926 52.6411C9.46926 52.7078 9.4502 52.7698 9.4502 52.8365C9.4502 55.4814 11.5947 57.626 14.2444 57.626C16.8846 57.626 19.0291 55.4814 19.0291 52.8365C19.0291 52.0454 18.8194 51.3115 18.4811 50.6539C17.6804 49.1146 16.0935 48.0471 14.2396 48.0471ZM46.7746 48.0471C44.916 48.0471 43.329 49.1146 42.5332 50.6539C42.19 51.3115 41.9804 52.0454 41.9804 52.8365C41.9804 55.4814 44.1249 57.626 46.7746 57.626C49.4147 57.626 51.564 55.4814 51.564 52.8365C51.564 52.0454 51.3543 51.3115 51.016 50.6539C50.2201 49.1146 48.6284 48.0471 46.7746 48.0471Z" fill="#2F2F2F"/>
<path d="M27.0212 25.5819C26.4732 25.4437 22.5225 25.6677 19.9586 28.4889C17.3899 31.3054 15.9697 35.2799 18.6004 35.2799H26.2015C27.269 35.2799 28.1459 34.8272 28.1459 33.469V27.8742C28.1411 26.8162 28.0649 25.844 27.0212 25.5819ZM41.9805 27.1355C39.2355 25.2817 32.8639 25.4437 32.0728 25.5819C30.5573 25.844 30.4429 26.8114 30.4429 27.8742V33.469C30.4429 34.8272 31.7106 35.2799 33.2594 35.2799H44.2489C48.0519 35.2799 45.8502 29.7423 41.9805 27.1355Z" fill="#40C0E7"/>
</svg>
