<svg width="20" height="20" viewBox="0 0 59 59" fill="none" xmlns="http://www.w3.org/2000/svg">
<g clip-path="url(#clip0_859_727)">
<path d="M40.0093 23.1391L53.2843 21.5719L40.378 26.2735" fill="#FFCE31"/>
<path d="M40.9313 22.586C40.9313 22.586 36.1376 22.4016 32.3579 25.536V29.5C32.3579 29.5 37.1517 29.5 40.9313 26.55C41.3923 26.1813 41.8532 25.6282 41.8532 24.6141C41.8532 23.5078 41.4845 22.586 40.9313 22.586Z" fill="#B2C1C0"/>
<path d="M8.57349 23.1391L16.1329 38.1657L28.2094 34.2938L12.3532 22.0328L8.57349 23.1391Z" fill="#42ADE2"/>
<path d="M12.3532 16.225V22.0328L8.57349 23.139L10.5094 17.4234L12.3532 16.225Z" fill="#428BC1"/>
<path d="M32.3579 30.0531C32.867 30.0531 33.2798 29.0213 33.2798 27.7484C33.2798 26.4756 32.867 25.4437 32.3579 25.4437C31.8488 25.4437 31.436 26.4756 31.436 27.7484C31.436 29.0213 31.8488 30.0531 32.3579 30.0531Z" fill="#3E4347"/>
<path d="M46.6469 16.225L41.3922 25.2594C41.3922 25.2594 19.9125 31.2516 12.3532 33.8328C4.79379 36.5063 7.37504 39.0875 1.93598 44.4344C-4.33277 50.4266 4.42504 50.7953 33.1875 39.2719C35.7688 38.2578 37.0594 34.0172 41.2079 31.3438C45.6329 28.486 49.5047 27.2875 49.5047 27.2875L52.3625 14.0125L46.6469 16.225Z" fill="#DAE3EA"/>
<path d="M47.5688 9.31091L43.7891 10.5093L46.6469 16.5015L55.1282 18.5297L59 15.8562L52.3625 13.9203L47.5688 9.31091ZM19.636 42.8672L55.2204 49.689L59 47.0156L34.2938 36.414L19.636 42.8672Z" fill="#42ADE2"/>
<path d="M58.9999 40.4703V47.0156L55.2202 49.6891L57.1562 41.6688L58.9999 40.4703Z" fill="#428BC1"/>
<path d="M7.55928 36.5984C6.45303 37.7047 5.8999 38.9953 4.97803 40.5625C5.80771 41.5766 7.09834 42.1297 8.57334 42.1297C11.2468 42.1297 13.3671 40.1016 13.3671 37.5203H10.5093C9.31084 37.6125 8.29678 37.1516 7.55928 36.5984Z" fill="#3E4347"/>
<path d="M9.5874 45.4484L8.66553 45.6328C8.1124 39.6406 9.67959 36.5063 9.77178 36.4141L10.5093 37.3359L10.1405 36.875L10.5093 37.3359C10.4171 37.3359 9.03428 40.1016 9.5874 45.4484Z" fill="#DAE3EA"/>
<path d="M20.0046 39.364C20.5138 39.364 20.9265 38.5798 20.9265 37.6125C20.9265 36.6451 20.5138 35.8609 20.0046 35.8609C19.4955 35.8609 19.0828 36.6451 19.0828 37.6125C19.0828 38.5798 19.4955 39.364 20.0046 39.364Z" fill="#3E4347"/>
<path d="M23.7844 38.1656C24.2936 38.1656 24.7063 37.3814 24.7063 36.414C24.7063 35.4467 24.2936 34.6625 23.7844 34.6625C23.2753 34.6625 22.8625 35.4467 22.8625 36.414C22.8625 37.3814 23.2753 38.1656 23.7844 38.1656Z" fill="#3E4347"/>
<path d="M27.564 36.9672C28.0731 36.9672 28.4858 36.183 28.4858 35.2156C28.4858 34.2483 28.0731 33.4641 27.564 33.4641C27.0548 33.4641 26.6421 34.2483 26.6421 35.2156C26.6421 36.183 27.0548 36.9672 27.564 36.9672Z" fill="#3E4347"/>
<path d="M47.5688 27.6563L59.0001 24.6141L48.0298 30.7906" fill="#FFCE31"/>
<path d="M47.5688 27.1953C47.5688 27.1953 42.775 26.9188 38.9954 30.6063V35.2156C38.9954 35.2156 43.7891 35.2156 47.5688 31.8047C48.0297 31.4359 48.4907 30.7906 48.4907 29.5C48.4907 28.2094 48.1219 27.1953 47.5688 27.1953Z" fill="#B2C1C0"/>
<path d="M38.9954 35.3078C39.5045 35.3078 39.9172 34.276 39.9172 33.0031C39.9172 31.7303 39.5045 30.6984 38.9954 30.6984C38.4862 30.6984 38.0735 31.7303 38.0735 33.0031C38.0735 34.276 38.4862 35.3078 38.9954 35.3078Z" fill="#3E4347"/>
</g>
<defs>
<clipPath id="clip0_859_727">
<rect width="59" height="59" fill="white"/>
</clipPath>
</defs>
</svg>
