<svg width="63" height="63" viewBox="0 0 63 63" fill="none" xmlns="http://www.w3.org/2000/svg">
<g clip-path="url(#clip0_859_686)">
<path d="M6.29439 0.519174C6.36018 0.333903 6.49383 0.180262 6.66854 0.0890621C6.84326 -0.00213794 7.04612 -0.0241535 7.23644 0.0274306L7.29229 0.0445901L28.3956 8.03824C29.3932 7.87449 30.384 7.7931 31.3585 7.79996C35.0416 7.82546 38.5197 8.64912 42.0077 10.7021L62.306 9.02785C62.4466 9.02173 62.5855 9.06076 62.7021 9.13919C62.8188 9.21762 62.9071 9.3313 62.954 9.4635C63.0009 9.59569 63.004 9.7394 62.9628 9.87347C62.9215 10.0075 62.8382 10.1249 62.725 10.2082L62.6677 10.2457L49.9872 17.6047C50.1919 17.8388 50.3971 18.0778 50.6031 18.3219C56.3801 25.1855 59.8944 35.1167 61.5728 40.859C62.0619 42.5324 62.1592 44.2953 61.8571 46.012C61.555 47.7287 60.8617 49.3535 59.8304 50.7613C56.0578 55.9055 48.0126 62.909 32.2283 62.7975C14.9963 62.6786 6.09535 54.1363 1.81884 48.8868C0.923284 47.7784 0.334154 46.456 0.109906 45.0507C-0.114341 43.6454 0.0340885 42.2062 0.540469 40.8757L0.860309 40.0422C3.38409 33.5027 8.08525 22.1446 11.851 17.9211C14.1179 15.3815 16.7322 13.1888 19.4944 11.5L6.53329 1.37911C6.40988 1.2774 6.3208 1.14037 6.27812 0.986568C6.23544 0.832763 6.2412 0.669606 6.29464 0.519174H6.29439Z" fill="#FF4C46"/>
<path d="M31.7378 44.9764C31.7443 44.9595 31.7541 44.9441 31.7666 44.931C31.7791 44.918 31.7941 44.9075 31.8107 44.9002C31.8273 44.8929 31.8452 44.889 31.8633 44.8886C31.8814 44.8882 31.8995 44.8914 31.9164 44.8979C33.276 45.6756 34.7888 46.1499 36.3503 46.2881C37.9118 46.4262 39.4849 46.225 40.9607 45.6983L41.1324 45.6355C41.1588 45.623 41.1887 45.6196 41.2173 45.6259C41.2458 45.6322 41.2715 45.6479 41.2901 45.6703C41.3087 45.6928 41.3192 45.7209 41.32 45.75C41.3208 45.7792 41.3117 45.8077 41.2943 45.8312L37.5168 49.9754C37.4013 50.1012 37.2411 50.177 37.0703 50.1869C36.8995 50.1968 36.7316 50.1399 36.6023 50.0284C35.2056 48.8326 32.8727 46.3342 31.7547 45.1073C31.741 45.0887 31.7323 45.0669 31.7293 45.044C31.7263 45.0211 31.7291 44.9979 31.7375 44.9764H31.7378ZM36.9819 23.751C46.7503 16.9794 52.0459 22.8575 55.0172 29.3781C57.1636 34.0774 57.9238 42.8753 50.9555 44.2238C45.6178 45.261 40.6856 39.8726 37.0377 34.8424C36.9309 34.6954 36.7907 34.5757 36.6286 34.493C36.4664 34.4102 36.287 34.3668 36.1048 34.3663C35.9227 34.3658 35.743 34.4081 35.5804 34.4899C35.4178 34.5717 35.2769 34.6907 35.1691 34.837L35.0208 35.043C32.5236 38.5312 26.5694 48.0151 17.7575 45.6149C9.25472 43.2957 7.38661 33.7658 10.9228 27.1783C16.1551 17.2444 23.7993 14.0078 36.9817 23.7512L36.9819 23.751ZM35.5935 37.382C35.7548 37.2276 35.9687 37.1396 36.1924 37.1357C36.416 37.1317 36.6329 37.2121 36.7996 37.3607L36.8488 37.4083L41.5167 42.7081C41.5639 42.7618 41.5982 42.8255 41.617 42.8943C41.6358 42.9631 41.6388 43.0353 41.6255 43.1054C41.6123 43.1756 41.5832 43.2417 41.5405 43.299C41.4979 43.3563 41.4427 43.4032 41.3792 43.4362C39.9741 44.1499 38.4258 44.5395 36.849 44.5758C34.7733 44.5587 32.6493 43.1859 31.7796 42.5552L31.7442 42.5265C31.6571 42.4493 31.6017 42.3429 31.5885 42.2275C31.5753 42.1122 31.6054 41.996 31.6728 41.9014L31.705 41.8612L35.5409 37.4281L35.5473 37.4298C35.5621 37.4134 35.5775 37.3974 35.5935 37.382V37.382Z" fill="white"/>
<path d="M48.3181 29.6071L48.372 29.6941C49.5013 31.4409 48.9957 33.7695 47.2423 34.8949C45.4888 36.0203 43.1517 35.5166 42.0222 33.7695C40.9237 32.0702 41.371 29.8169 43.0177 28.6586L43.1087 28.5966C44.7487 27.4273 47.0299 27.8036 48.2037 29.4374C48.2434 29.4931 48.2817 29.5495 48.3181 29.6071V29.6071ZM24.7048 27.6026C22.7391 28.2701 21.7621 30.3503 22.3479 32.2874C23.0178 34.246 25.1054 35.2197 27.0495 34.6363C29.0153 33.9685 29.9766 31.8621 29.407 29.9512C29.4122 29.9387 29.3996 29.9027 29.3755 29.8593C28.7708 27.974 26.8394 26.9775 25.0011 27.4982C24.9164 27.4768 24.8106 27.5398 24.7048 27.6026V27.6026Z" fill="#FF4C46"/>
</g>
<defs>
<clipPath id="clip0_859_686">
<rect width="63" height="63" fill="white"/>
</clipPath>
</defs>
</svg>
