<svg width="60" height="60" viewBox="0 0 69 69" fill="none" xmlns="http://www.w3.org/2000/svg">
<path d="M24.4929 44.4554C26.1672 44.4554 27.5246 43.0981 27.5246 41.4237C27.5246 39.7494 26.1672 38.392 24.4929 38.392C22.8185 38.392 21.4612 39.7494 21.4612 41.4237C21.4612 43.0981 22.8185 44.4554 24.4929 44.4554Z" fill="url(#paint0_radial_859_764)"/>
<path d="M24.4929 44.4554C26.1672 44.4554 27.5246 43.0981 27.5246 41.4237C27.5246 39.7494 26.1672 38.392 24.4929 38.392C22.8185 38.392 21.4612 39.7494 21.4612 41.4237C21.4612 43.0981 22.8185 44.4554 24.4929 44.4554Z" fill="url(#paint1_radial_859_764)"/>
<path d="M24.4929 44.4554C26.1672 44.4554 27.5246 43.0981 27.5246 41.4237C27.5246 39.7494 26.1672 38.392 24.4929 38.392C22.8185 38.392 21.4612 39.7494 21.4612 41.4237C21.4612 43.0981 22.8185 44.4554 24.4929 44.4554Z" fill="url(#paint2_radial_859_764)"/>
<path d="M24.4929 44.4554C26.1672 44.4554 27.5246 43.0981 27.5246 41.4237C27.5246 39.7494 26.1672 38.392 24.4929 38.392C22.8185 38.392 21.4612 39.7494 21.4612 41.4237C21.4612 43.0981 22.8185 44.4554 24.4929 44.4554Z" fill="url(#paint3_linear_859_764)"/>
<path d="M27.5417 53.3844C29.2161 53.3844 30.5734 52.0271 30.5734 50.3527C30.5734 48.6784 29.2161 47.321 27.5417 47.321C25.8673 47.321 24.51 48.6784 24.51 50.3527C24.51 52.0271 25.8673 53.3844 27.5417 53.3844Z" fill="url(#paint4_radial_859_764)"/>
<path d="M27.5417 53.3844C29.2161 53.3844 30.5734 52.0271 30.5734 50.3527C30.5734 48.6784 29.2161 47.321 27.5417 47.321C25.8673 47.321 24.51 48.6784 24.51 50.3527C24.51 52.0271 25.8673 53.3844 27.5417 53.3844Z" fill="url(#paint5_radial_859_764)"/>
<path d="M27.5417 53.3844C29.2161 53.3844 30.5734 52.0271 30.5734 50.3527C30.5734 48.6784 29.2161 47.321 27.5417 47.321C25.8673 47.321 24.51 48.6784 24.51 50.3527C24.51 52.0271 25.8673 53.3844 27.5417 53.3844Z" fill="url(#paint6_radial_859_764)"/>
<path d="M27.5417 53.3844C29.2161 53.3844 30.5734 52.0271 30.5734 50.3527C30.5734 48.6784 29.2161 47.321 27.5417 47.321C25.8673 47.321 24.51 48.6784 24.51 50.3527C24.51 52.0271 25.8673 53.3844 27.5417 53.3844Z" fill="url(#paint7_linear_859_764)"/>
<path d="M34.4999 61.1081C36.1743 61.1081 37.5316 59.7508 37.5316 58.0764C37.5316 56.4021 36.1743 55.0447 34.4999 55.0447C32.8256 55.0447 31.4683 56.4021 31.4683 58.0764C31.4683 59.7508 32.8256 61.1081 34.4999 61.1081Z" fill="url(#paint8_radial_859_764)"/>
<path d="M34.4999 61.1081C36.1743 61.1081 37.5316 59.7508 37.5316 58.0764C37.5316 56.4021 36.1743 55.0447 34.4999 55.0447C32.8256 55.0447 31.4683 56.4021 31.4683 58.0764C31.4683 59.7508 32.8256 61.1081 34.4999 61.1081Z" fill="url(#paint9_radial_859_764)"/>
<path d="M34.4999 61.1081C36.1743 61.1081 37.5316 59.7508 37.5316 58.0764C37.5316 56.4021 36.1743 55.0447 34.4999 55.0447C32.8256 55.0447 31.4683 56.4021 31.4683 58.0764C31.4683 59.7508 32.8256 61.1081 34.4999 61.1081Z" fill="url(#paint10_radial_859_764)"/>
<path d="M44.2031 63.204C45.8774 63.204 47.2348 61.8467 47.2348 60.1723C47.2348 58.498 45.8774 57.1406 44.2031 57.1406C42.5287 57.1406 41.1714 58.498 41.1714 60.1723C41.1714 61.8467 42.5287 63.204 44.2031 63.204Z" fill="url(#paint11_radial_859_764)"/>
<path d="M44.2031 63.204C45.8774 63.204 47.2348 61.8467 47.2348 60.1723C47.2348 58.498 45.8774 57.1406 44.2031 57.1406C42.5287 57.1406 41.1714 58.498 41.1714 60.1723C41.1714 61.8467 42.5287 63.204 44.2031 63.204Z" fill="url(#paint12_radial_859_764)"/>
<path d="M44.2031 63.204C45.8774 63.204 47.2348 61.8467 47.2348 60.1723C47.2348 58.498 45.8774 57.1406 44.2031 57.1406C42.5287 57.1406 41.1714 58.498 41.1714 60.1723C41.1714 61.8467 42.5287 63.204 44.2031 63.204Z" fill="url(#paint13_radial_859_764)"/>
<path d="M54.3266 63.204C56.001 63.204 57.3583 61.8467 57.3583 60.1723C57.3583 58.498 56.001 57.1406 54.3266 57.1406C52.6523 57.1406 51.2949 58.498 51.2949 60.1723C51.2949 61.8467 52.6523 63.204 54.3266 63.204Z" fill="url(#paint14_radial_859_764)"/>
<path d="M54.3266 63.204C56.001 63.204 57.3583 61.8467 57.3583 60.1723C57.3583 58.498 56.001 57.1406 54.3266 57.1406C52.6523 57.1406 51.2949 58.498 51.2949 60.1723C51.2949 61.8467 52.6523 63.204 54.3266 63.204Z" fill="url(#paint15_radial_859_764)"/>
<g filter="url(#filter0_i_859_764)">
<path d="M26.4486 6.73828C25.1225 6.97547 21.6293 8.64225 19.9108 11.3527C18.7249 13.2243 18.0586 16.2732 18.0586 18.5308" stroke="#298367" stroke-width="1.54688" stroke-linecap="round" stroke-linejoin="round"/>
<path d="M26.4486 6.73828C25.1225 6.97547 21.6293 8.64225 19.9108 11.3527C18.7249 13.2243 18.0586 16.2732 18.0586 18.5308" stroke="url(#paint16_radial_859_764)" stroke-width="1.54688" stroke-linecap="round" stroke-linejoin="round"/>
<path d="M26.4486 6.73828C25.1225 6.97547 21.6293 8.64225 19.9108 11.3527C18.7249 13.2243 18.0586 16.2732 18.0586 18.5308" stroke="url(#paint17_radial_859_764)" stroke-width="1.54688" stroke-linecap="round" stroke-linejoin="round"/>
</g>
<g filter="url(#filter1_f_859_764)">
<path d="M26.4486 6.73828C25.1225 6.97547 21.6293 8.64225 19.9108 11.3527C18.7249 13.2243 18.0586 16.2732 18.0586 18.5308" stroke="url(#paint18_linear_859_764)" stroke-width="0.515625" stroke-linecap="round" stroke-linejoin="round"/>
</g>
<path d="M5.99658 6.60461C6.58955 6.7728 7.76471 7.29461 8.90752 7.83368C10.8374 8.74577 12.53 10.184 13.0906 12.2432C13.4809 13.6793 13.7461 15.456 13.7461 17.4527" stroke="#2B8981" stroke-width="1.54688" stroke-linecap="round" stroke-linejoin="round"/>
<path d="M5.99658 6.60461C6.58955 6.7728 7.76471 7.29461 8.90752 7.83368C10.8374 8.74577 12.53 10.184 13.0906 12.2432C13.4809 13.6793 13.7461 15.456 13.7461 17.4527" stroke="url(#paint19_radial_859_764)" stroke-width="1.54688" stroke-linecap="round" stroke-linejoin="round"/>
<path d="M5.99658 6.60461C6.58955 6.7728 7.76471 7.29461 8.90752 7.83368C10.8374 8.74577 12.53 10.184 13.0906 12.2432C13.4809 13.6793 13.7461 15.456 13.7461 17.4527" stroke="url(#paint20_radial_859_764)" stroke-width="1.54688" stroke-linecap="round" stroke-linejoin="round"/>
<path d="M5.99658 6.60461C6.58955 6.7728 7.76471 7.29461 8.90752 7.83368C10.8374 8.74577 12.53 10.184 13.0906 12.2432C13.4809 13.6793 13.7461 15.456 13.7461 17.4527" stroke="url(#paint21_linear_859_764)" stroke-width="1.54688" stroke-linecap="round" stroke-linejoin="round"/>
<path fill-rule="evenodd" clip-rule="evenodd" d="M4.47632 24.5856C4.47632 22.2981 5.38502 20.1043 7.00252 18.4868C8.62002 16.8693 10.8138 15.9606 13.1013 15.9606H22.9123C26.6305 15.96 30.2493 17.1609 33.2296 19.3842C36.2098 21.6076 38.3919 24.7343 39.4507 28.2986L43.3384 41.3892C43.5499 42.1023 43.9862 42.728 44.5823 43.1729C45.1784 43.6178 45.9023 43.8582 46.6461 43.8581H55.8964C58.1839 43.8581 60.3777 44.7668 61.9952 46.3843C63.6127 48.0018 64.5214 50.1956 64.5214 52.4831C64.5214 54.7706 63.6127 56.9644 61.9952 58.5819C60.3777 60.1994 58.1839 61.1081 55.8964 61.1081H44.0737C40.3555 61.1087 36.7366 59.9078 33.7564 57.6845C30.7761 55.4611 28.594 52.3344 27.5353 48.7701L23.7381 35.6989C23.5299 34.9815 23.0944 34.351 22.4971 33.9023C21.8999 33.4536 21.1731 33.2108 20.4261 33.2106H13.1013C10.8138 33.2106 8.62002 32.3019 7.00252 30.6844C5.38502 29.0669 4.47632 26.8731 4.47632 24.5856Z" fill="url(#paint22_linear_859_764)"/>
<path fill-rule="evenodd" clip-rule="evenodd" d="M4.47632 24.5856C4.47632 22.2981 5.38502 20.1043 7.00252 18.4868C8.62002 16.8693 10.8138 15.9606 13.1013 15.9606H22.9123C26.6305 15.96 30.2493 17.1609 33.2296 19.3842C36.2098 21.6076 38.3919 24.7343 39.4507 28.2986L43.3384 41.3892C43.5499 42.1023 43.9862 42.728 44.5823 43.1729C45.1784 43.6178 45.9023 43.8582 46.6461 43.8581H55.8964C58.1839 43.8581 60.3777 44.7668 61.9952 46.3843C63.6127 48.0018 64.5214 50.1956 64.5214 52.4831C64.5214 54.7706 63.6127 56.9644 61.9952 58.5819C60.3777 60.1994 58.1839 61.1081 55.8964 61.1081H44.0737C40.3555 61.1087 36.7366 59.9078 33.7564 57.6845C30.7761 55.4611 28.594 52.3344 27.5353 48.7701L23.7381 35.6989C23.5299 34.9815 23.0944 34.351 22.4971 33.9023C21.8999 33.4536 21.1731 33.2108 20.4261 33.2106H13.1013C10.8138 33.2106 8.62002 32.3019 7.00252 30.6844C5.38502 29.0669 4.47632 26.8731 4.47632 24.5856Z" fill="url(#paint23_linear_859_764)"/>
<path fill-rule="evenodd" clip-rule="evenodd" d="M4.47632 24.5856C4.47632 22.2981 5.38502 20.1043 7.00252 18.4868C8.62002 16.8693 10.8138 15.9606 13.1013 15.9606H22.9123C26.6305 15.96 30.2493 17.1609 33.2296 19.3842C36.2098 21.6076 38.3919 24.7343 39.4507 28.2986L43.3384 41.3892C43.5499 42.1023 43.9862 42.728 44.5823 43.1729C45.1784 43.6178 45.9023 43.8582 46.6461 43.8581H55.8964C58.1839 43.8581 60.3777 44.7668 61.9952 46.3843C63.6127 48.0018 64.5214 50.1956 64.5214 52.4831C64.5214 54.7706 63.6127 56.9644 61.9952 58.5819C60.3777 60.1994 58.1839 61.1081 55.8964 61.1081H44.0737C40.3555 61.1087 36.7366 59.9078 33.7564 57.6845C30.7761 55.4611 28.594 52.3344 27.5353 48.7701L23.7381 35.6989C23.5299 34.9815 23.0944 34.351 22.4971 33.9023C21.8999 33.4536 21.1731 33.2108 20.4261 33.2106H13.1013C10.8138 33.2106 8.62002 32.3019 7.00252 30.6844C5.38502 29.0669 4.47632 26.8731 4.47632 24.5856Z" fill="url(#paint24_radial_859_764)"/>
<path fill-rule="evenodd" clip-rule="evenodd" d="M4.47632 24.5856C4.47632 22.2981 5.38502 20.1043 7.00252 18.4868C8.62002 16.8693 10.8138 15.9606 13.1013 15.9606H22.9123C26.6305 15.96 30.2493 17.1609 33.2296 19.3842C36.2098 21.6076 38.3919 24.7343 39.4507 28.2986L43.3384 41.3892C43.5499 42.1023 43.9862 42.728 44.5823 43.1729C45.1784 43.6178 45.9023 43.8582 46.6461 43.8581H55.8964C58.1839 43.8581 60.3777 44.7668 61.9952 46.3843C63.6127 48.0018 64.5214 50.1956 64.5214 52.4831C64.5214 54.7706 63.6127 56.9644 61.9952 58.5819C60.3777 60.1994 58.1839 61.1081 55.8964 61.1081H44.0737C40.3555 61.1087 36.7366 59.9078 33.7564 57.6845C30.7761 55.4611 28.594 52.3344 27.5353 48.7701L23.7381 35.6989C23.5299 34.9815 23.0944 34.351 22.4971 33.9023C21.8999 33.4536 21.1731 33.2108 20.4261 33.2106H13.1013C10.8138 33.2106 8.62002 32.3019 7.00252 30.6844C5.38502 29.0669 4.47632 26.8731 4.47632 24.5856Z" fill="url(#paint25_radial_859_764)"/>
<path fill-rule="evenodd" clip-rule="evenodd" d="M4.47632 24.5856C4.47632 22.2981 5.38502 20.1043 7.00252 18.4868C8.62002 16.8693 10.8138 15.9606 13.1013 15.9606H22.9123C26.6305 15.96 30.2493 17.1609 33.2296 19.3842C36.2098 21.6076 38.3919 24.7343 39.4507 28.2986L43.3384 41.3892C43.5499 42.1023 43.9862 42.728 44.5823 43.1729C45.1784 43.6178 45.9023 43.8582 46.6461 43.8581H55.8964C58.1839 43.8581 60.3777 44.7668 61.9952 46.3843C63.6127 48.0018 64.5214 50.1956 64.5214 52.4831C64.5214 54.7706 63.6127 56.9644 61.9952 58.5819C60.3777 60.1994 58.1839 61.1081 55.8964 61.1081H44.0737C40.3555 61.1087 36.7366 59.9078 33.7564 57.6845C30.7761 55.4611 28.594 52.3344 27.5353 48.7701L23.7381 35.6989C23.5299 34.9815 23.0944 34.351 22.4971 33.9023C21.8999 33.4536 21.1731 33.2108 20.4261 33.2106H13.1013C10.8138 33.2106 8.62002 32.3019 7.00252 30.6844C5.38502 29.0669 4.47632 26.8731 4.47632 24.5856Z" fill="url(#paint26_linear_859_764)"/>
<path fill-rule="evenodd" clip-rule="evenodd" d="M4.47632 24.5856C4.47632 22.2981 5.38502 20.1043 7.00252 18.4868C8.62002 16.8693 10.8138 15.9606 13.1013 15.9606H22.9123C26.6305 15.96 30.2493 17.1609 33.2296 19.3842C36.2098 21.6076 38.3919 24.7343 39.4507 28.2986L43.3384 41.3892C43.5499 42.1023 43.9862 42.728 44.5823 43.1729C45.1784 43.6178 45.9023 43.8582 46.6461 43.8581H55.8964C58.1839 43.8581 60.3777 44.7668 61.9952 46.3843C63.6127 48.0018 64.5214 50.1956 64.5214 52.4831C64.5214 54.7706 63.6127 56.9644 61.9952 58.5819C60.3777 60.1994 58.1839 61.1081 55.8964 61.1081H44.0737C40.3555 61.1087 36.7366 59.9078 33.7564 57.6845C30.7761 55.4611 28.594 52.3344 27.5353 48.7701L23.7381 35.6989C23.5299 34.9815 23.0944 34.351 22.4971 33.9023C21.8999 33.4536 21.1731 33.2108 20.4261 33.2106H13.1013C10.8138 33.2106 8.62002 32.3019 7.00252 30.6844C5.38502 29.0669 4.47632 26.8731 4.47632 24.5856Z" fill="url(#paint27_radial_859_764)"/>
<path fill-rule="evenodd" clip-rule="evenodd" d="M4.47632 24.5856C4.47632 22.2981 5.38502 20.1043 7.00252 18.4868C8.62002 16.8693 10.8138 15.9606 13.1013 15.9606H22.9123C26.6305 15.96 30.2493 17.1609 33.2296 19.3842C36.2098 21.6076 38.3919 24.7343 39.4507 28.2986L43.3384 41.3892C43.5499 42.1023 43.9862 42.728 44.5823 43.1729C45.1784 43.6178 45.9023 43.8582 46.6461 43.8581H55.8964C58.1839 43.8581 60.3777 44.7668 61.9952 46.3843C63.6127 48.0018 64.5214 50.1956 64.5214 52.4831C64.5214 54.7706 63.6127 56.9644 61.9952 58.5819C60.3777 60.1994 58.1839 61.1081 55.8964 61.1081H44.0737C40.3555 61.1087 36.7366 59.9078 33.7564 57.6845C30.7761 55.4611 28.594 52.3344 27.5353 48.7701L23.7381 35.6989C23.5299 34.9815 23.0944 34.351 22.4971 33.9023C21.8999 33.4536 21.1731 33.2108 20.4261 33.2106H13.1013C10.8138 33.2106 8.62002 32.3019 7.00252 30.6844C5.38502 29.0669 4.47632 26.8731 4.47632 24.5856Z" fill="url(#paint28_radial_859_764)"/>
<path fill-rule="evenodd" clip-rule="evenodd" d="M4.47632 24.5856C4.47632 22.2981 5.38502 20.1043 7.00252 18.4868C8.62002 16.8693 10.8138 15.9606 13.1013 15.9606H22.9123C26.6305 15.96 30.2493 17.1609 33.2296 19.3842C36.2098 21.6076 38.3919 24.7343 39.4507 28.2986L43.3384 41.3892C43.5499 42.1023 43.9862 42.728 44.5823 43.1729C45.1784 43.6178 45.9023 43.8582 46.6461 43.8581H55.8964C58.1839 43.8581 60.3777 44.7668 61.9952 46.3843C63.6127 48.0018 64.5214 50.1956 64.5214 52.4831C64.5214 54.7706 63.6127 56.9644 61.9952 58.5819C60.3777 60.1994 58.1839 61.1081 55.8964 61.1081H44.0737C40.3555 61.1087 36.7366 59.9078 33.7564 57.6845C30.7761 55.4611 28.594 52.3344 27.5353 48.7701L23.7381 35.6989C23.5299 34.9815 23.0944 34.351 22.4971 33.9023C21.8999 33.4536 21.1731 33.2108 20.4261 33.2106H13.1013C10.8138 33.2106 8.62002 32.3019 7.00252 30.6844C5.38502 29.0669 4.47632 26.8731 4.47632 24.5856Z" fill="url(#paint29_radial_859_764)"/>
<path fill-rule="evenodd" clip-rule="evenodd" d="M4.47632 24.5856C4.47632 22.2981 5.38502 20.1043 7.00252 18.4868C8.62002 16.8693 10.8138 15.9606 13.1013 15.9606H22.9123C26.6305 15.96 30.2493 17.1609 33.2296 19.3842C36.2098 21.6076 38.3919 24.7343 39.4507 28.2986L43.3384 41.3892C43.5499 42.1023 43.9862 42.728 44.5823 43.1729C45.1784 43.6178 45.9023 43.8582 46.6461 43.8581H55.8964C58.1839 43.8581 60.3777 44.7668 61.9952 46.3843C63.6127 48.0018 64.5214 50.1956 64.5214 52.4831C64.5214 54.7706 63.6127 56.9644 61.9952 58.5819C60.3777 60.1994 58.1839 61.1081 55.8964 61.1081H44.0737C40.3555 61.1087 36.7366 59.9078 33.7564 57.6845C30.7761 55.4611 28.594 52.3344 27.5353 48.7701L23.7381 35.6989C23.5299 34.9815 23.0944 34.351 22.4971 33.9023C21.8999 33.4536 21.1731 33.2108 20.4261 33.2106H13.1013C10.8138 33.2106 8.62002 32.3019 7.00252 30.6844C5.38502 29.0669 4.47632 26.8731 4.47632 24.5856Z" fill="url(#paint30_radial_859_764)"/>
<path fill-rule="evenodd" clip-rule="evenodd" d="M4.47632 24.5856C4.47632 22.2981 5.38502 20.1043 7.00252 18.4868C8.62002 16.8693 10.8138 15.9606 13.1013 15.9606H22.9123C26.6305 15.96 30.2493 17.1609 33.2296 19.3842C36.2098 21.6076 38.3919 24.7343 39.4507 28.2986L43.3384 41.3892C43.5499 42.1023 43.9862 42.728 44.5823 43.1729C45.1784 43.6178 45.9023 43.8582 46.6461 43.8581H55.8964C58.1839 43.8581 60.3777 44.7668 61.9952 46.3843C63.6127 48.0018 64.5214 50.1956 64.5214 52.4831C64.5214 54.7706 63.6127 56.9644 61.9952 58.5819C60.3777 60.1994 58.1839 61.1081 55.8964 61.1081H44.0737C40.3555 61.1087 36.7366 59.9078 33.7564 57.6845C30.7761 55.4611 28.594 52.3344 27.5353 48.7701L23.7381 35.6989C23.5299 34.9815 23.0944 34.351 22.4971 33.9023C21.8999 33.4536 21.1731 33.2108 20.4261 33.2106H13.1013C10.8138 33.2106 8.62002 32.3019 7.00252 30.6844C5.38502 29.0669 4.47632 26.8731 4.47632 24.5856Z" fill="url(#paint31_radial_859_764)"/>
<path fill-rule="evenodd" clip-rule="evenodd" d="M4.47632 24.5856C4.47632 22.2981 5.38502 20.1043 7.00252 18.4868C8.62002 16.8693 10.8138 15.9606 13.1013 15.9606H22.9123C26.6305 15.96 30.2493 17.1609 33.2296 19.3842C36.2098 21.6076 38.3919 24.7343 39.4507 28.2986L43.3384 41.3892C43.5499 42.1023 43.9862 42.728 44.5823 43.1729C45.1784 43.6178 45.9023 43.8582 46.6461 43.8581H55.8964C58.1839 43.8581 60.3777 44.7668 61.9952 46.3843C63.6127 48.0018 64.5214 50.1956 64.5214 52.4831C64.5214 54.7706 63.6127 56.9644 61.9952 58.5819C60.3777 60.1994 58.1839 61.1081 55.8964 61.1081H44.0737C40.3555 61.1087 36.7366 59.9078 33.7564 57.6845C30.7761 55.4611 28.594 52.3344 27.5353 48.7701L23.7381 35.6989C23.5299 34.9815 23.0944 34.351 22.4971 33.9023C21.8999 33.4536 21.1731 33.2108 20.4261 33.2106H13.1013C10.8138 33.2106 8.62002 32.3019 7.00252 30.6844C5.38502 29.0669 4.47632 26.8731 4.47632 24.5856Z" fill="url(#paint32_radial_859_764)"/>
<path fill-rule="evenodd" clip-rule="evenodd" d="M4.47632 24.5856C4.47632 22.2981 5.38502 20.1043 7.00252 18.4868C8.62002 16.8693 10.8138 15.9606 13.1013 15.9606H22.9123C26.6305 15.96 30.2493 17.1609 33.2296 19.3842C36.2098 21.6076 38.3919 24.7343 39.4507 28.2986L43.3384 41.3892C43.5499 42.1023 43.9862 42.728 44.5823 43.1729C45.1784 43.6178 45.9023 43.8582 46.6461 43.8581H55.8964C58.1839 43.8581 60.3777 44.7668 61.9952 46.3843C63.6127 48.0018 64.5214 50.1956 64.5214 52.4831C64.5214 54.7706 63.6127 56.9644 61.9952 58.5819C60.3777 60.1994 58.1839 61.1081 55.8964 61.1081H44.0737C40.3555 61.1087 36.7366 59.9078 33.7564 57.6845C30.7761 55.4611 28.594 52.3344 27.5353 48.7701L23.7381 35.6989C23.5299 34.9815 23.0944 34.351 22.4971 33.9023C21.8999 33.4536 21.1731 33.2108 20.4261 33.2106H13.1013C10.8138 33.2106 8.62002 32.3019 7.00252 30.6844C5.38502 29.0669 4.47632 26.8731 4.47632 24.5856Z" fill="url(#paint33_radial_859_764)"/>
<path fill-rule="evenodd" clip-rule="evenodd" d="M4.47632 24.5856C4.47632 22.2981 5.38502 20.1043 7.00252 18.4868C8.62002 16.8693 10.8138 15.9606 13.1013 15.9606H22.9123C26.6305 15.96 30.2493 17.1609 33.2296 19.3842C36.2098 21.6076 38.3919 24.7343 39.4507 28.2986L43.3384 41.3892C43.5499 42.1023 43.9862 42.728 44.5823 43.1729C45.1784 43.6178 45.9023 43.8582 46.6461 43.8581H55.8964C58.1839 43.8581 60.3777 44.7668 61.9952 46.3843C63.6127 48.0018 64.5214 50.1956 64.5214 52.4831C64.5214 54.7706 63.6127 56.9644 61.9952 58.5819C60.3777 60.1994 58.1839 61.1081 55.8964 61.1081H44.0737C40.3555 61.1087 36.7366 59.9078 33.7564 57.6845C30.7761 55.4611 28.594 52.3344 27.5353 48.7701L23.7381 35.6989C23.5299 34.9815 23.0944 34.351 22.4971 33.9023C21.8999 33.4536 21.1731 33.2108 20.4261 33.2106H13.1013C10.8138 33.2106 8.62002 32.3019 7.00252 30.6844C5.38502 29.0669 4.47632 26.8731 4.47632 24.5856Z" fill="url(#paint34_radial_859_764)"/>
<path fill-rule="evenodd" clip-rule="evenodd" d="M4.47632 24.5856C4.47632 22.2981 5.38502 20.1043 7.00252 18.4868C8.62002 16.8693 10.8138 15.9606 13.1013 15.9606H22.9123C26.6305 15.96 30.2493 17.1609 33.2296 19.3842C36.2098 21.6076 38.3919 24.7343 39.4507 28.2986L43.3384 41.3892C43.5499 42.1023 43.9862 42.728 44.5823 43.1729C45.1784 43.6178 45.9023 43.8582 46.6461 43.8581H55.8964C58.1839 43.8581 60.3777 44.7668 61.9952 46.3843C63.6127 48.0018 64.5214 50.1956 64.5214 52.4831C64.5214 54.7706 63.6127 56.9644 61.9952 58.5819C60.3777 60.1994 58.1839 61.1081 55.8964 61.1081H44.0737C40.3555 61.1087 36.7366 59.9078 33.7564 57.6845C30.7761 55.4611 28.594 52.3344 27.5353 48.7701L23.7381 35.6989C23.5299 34.9815 23.0944 34.351 22.4971 33.9023C21.8999 33.4536 21.1731 33.2108 20.4261 33.2106H13.1013C10.8138 33.2106 8.62002 32.3019 7.00252 30.6844C5.38502 29.0669 4.47632 26.8731 4.47632 24.5856Z" fill="url(#paint35_radial_859_764)"/>
<path fill-rule="evenodd" clip-rule="evenodd" d="M4.47632 24.5856C4.47632 22.2981 5.38502 20.1043 7.00252 18.4868C8.62002 16.8693 10.8138 15.9606 13.1013 15.9606H22.9123C26.6305 15.96 30.2493 17.1609 33.2296 19.3842C36.2098 21.6076 38.3919 24.7343 39.4507 28.2986L43.3384 41.3892C43.5499 42.1023 43.9862 42.728 44.5823 43.1729C45.1784 43.6178 45.9023 43.8582 46.6461 43.8581H55.8964C58.1839 43.8581 60.3777 44.7668 61.9952 46.3843C63.6127 48.0018 64.5214 50.1956 64.5214 52.4831C64.5214 54.7706 63.6127 56.9644 61.9952 58.5819C60.3777 60.1994 58.1839 61.1081 55.8964 61.1081H44.0737C40.3555 61.1087 36.7366 59.9078 33.7564 57.6845C30.7761 55.4611 28.594 52.3344 27.5353 48.7701L23.7381 35.6989C23.5299 34.9815 23.0944 34.351 22.4971 33.9023C21.8999 33.4536 21.1731 33.2108 20.4261 33.2106H13.1013C10.8138 33.2106 8.62002 32.3019 7.00252 30.6844C5.38502 29.0669 4.47632 26.8731 4.47632 24.5856Z" fill="url(#paint36_radial_859_764)"/>
<path fill-rule="evenodd" clip-rule="evenodd" d="M4.47632 24.5856C4.47632 22.2981 5.38502 20.1043 7.00252 18.4868C8.62002 16.8693 10.8138 15.9606 13.1013 15.9606H22.9123C26.6305 15.96 30.2493 17.1609 33.2296 19.3842C36.2098 21.6076 38.3919 24.7343 39.4507 28.2986L43.3384 41.3892C43.5499 42.1023 43.9862 42.728 44.5823 43.1729C45.1784 43.6178 45.9023 43.8582 46.6461 43.8581H55.8964C58.1839 43.8581 60.3777 44.7668 61.9952 46.3843C63.6127 48.0018 64.5214 50.1956 64.5214 52.4831C64.5214 54.7706 63.6127 56.9644 61.9952 58.5819C60.3777 60.1994 58.1839 61.1081 55.8964 61.1081H44.0737C40.3555 61.1087 36.7366 59.9078 33.7564 57.6845C30.7761 55.4611 28.594 52.3344 27.5353 48.7701L23.7381 35.6989C23.5299 34.9815 23.0944 34.351 22.4971 33.9023C21.8999 33.4536 21.1731 33.2108 20.4261 33.2106H13.1013C10.8138 33.2106 8.62002 32.3019 7.00252 30.6844C5.38502 29.0669 4.47632 26.8731 4.47632 24.5856Z" fill="url(#paint37_linear_859_764)"/>
<path d="M14.6215 21.7911C14.6215 20.8932 13.8936 20.1653 12.9957 20.1653C12.0978 20.1653 11.3699 20.8932 11.3699 21.7911V24.991C11.3699 25.8889 12.0978 26.6168 12.9957 26.6168C13.8936 26.6168 14.6215 25.8889 14.6215 24.991V21.7911Z" fill="url(#paint38_linear_859_764)"/>
<path d="M14.6215 21.7911C14.6215 20.8932 13.8936 20.1653 12.9957 20.1653C12.0978 20.1653 11.3699 20.8932 11.3699 21.7911V24.991C11.3699 25.8889 12.0978 26.6168 12.9957 26.6168C13.8936 26.6168 14.6215 25.8889 14.6215 24.991V21.7911Z" fill="url(#paint39_linear_859_764)"/>
<path d="M14.6215 21.7911C14.6215 20.8932 13.8936 20.1653 12.9957 20.1653C12.0978 20.1653 11.3699 20.8932 11.3699 21.7911V24.991C11.3699 25.8889 12.0978 26.6168 12.9957 26.6168C13.8936 26.6168 14.6215 25.8889 14.6215 24.991V21.7911Z" fill="url(#paint40_radial_859_764)"/>
<g filter="url(#filter2_f_859_764)">
<path d="M20.0811 20.9566H23.6906C25.9697 20.9567 28.19 21.679 30.0329 23.0199C31.8758 24.3607 33.2464 26.251 33.9479 28.4194L39.0884 44.3109C39.4389 45.3952 40.124 46.3404 41.0452 47.011C41.9664 47.6816 43.0765 48.0431 44.216 48.0434H46.6288" stroke="#72F7B4" stroke-width="2.0625" stroke-linecap="round" stroke-linejoin="round"/>
</g>
<g filter="url(#filter3_f_859_764)">
<path d="M6.53564 6.23157C7.73883 6.5356 10.5398 7.62666 12.129 9.56729C13.7181 11.5079 14.296 14.173 14.3865 15.2619" stroke="url(#paint41_linear_859_764)" stroke-width="0.515625" stroke-linecap="round" stroke-linejoin="round"/>
</g>
<defs>
<filter id="filter0_i_859_764" x="17.2852" y="5.96472" width="10.0917" height="13.4942" filterUnits="userSpaceOnUse" color-interpolation-filters="sRGB">
<feFlood flood-opacity="0" result="BackgroundImageFix"/>
<feBlend mode="normal" in="SourceGraphic" in2="BackgroundImageFix" result="shape"/>
<feColorMatrix in="SourceAlpha" type="matrix" values="0 0 0 0 0 0 0 0 0 0 0 0 0 0 0 0 0 0 127 0" result="hardAlpha"/>
<feOffset dx="0.154688" dy="0.154688"/>
<feGaussianBlur stdDeviation="0.154688"/>
<feComposite in2="hardAlpha" operator="arithmetic" k2="-1" k3="1"/>
<feColorMatrix type="matrix" values="0 0 0 0 0.415686 0 0 0 0 0.607843 0 0 0 0 0.513726 0 0 0 1 0"/>
<feBlend mode="normal" in2="shape" result="effect1_innerShadow_859_764"/>
</filter>
<filter id="filter1_f_859_764" x="17.2852" y="5.96478" width="9.93677" height="13.3395" filterUnits="userSpaceOnUse" color-interpolation-filters="sRGB">
<feFlood flood-opacity="0" result="BackgroundImageFix"/>
<feBlend mode="normal" in="SourceGraphic" in2="BackgroundImageFix" result="shape"/>
<feGaussianBlur stdDeviation="0.257812" result="effect1_foregroundBlur_859_764"/>
</filter>
<filter id="filter2_f_859_764" x="15.9561" y="16.8316" width="34.7979" height="35.3368" filterUnits="userSpaceOnUse" color-interpolation-filters="sRGB">
<feFlood flood-opacity="0" result="BackgroundImageFix"/>
<feBlend mode="normal" in="SourceGraphic" in2="BackgroundImageFix" result="shape"/>
<feGaussianBlur stdDeviation="1.54688" result="effect1_foregroundBlur_859_764"/>
</filter>
<filter id="filter3_f_859_764" x="5.86533" y="5.56119" width="9.19146" height="10.3711" filterUnits="userSpaceOnUse" color-interpolation-filters="sRGB">
<feFlood flood-opacity="0" result="BackgroundImageFix"/>
<feBlend mode="normal" in="SourceGraphic" in2="BackgroundImageFix" result="shape"/>
<feGaussianBlur stdDeviation="0.20625" result="effect1_foregroundBlur_859_764"/>
</filter>
<radialGradient id="paint0_radial_859_764" cx="0" cy="0" r="1" gradientUnits="userSpaceOnUse" gradientTransform="translate(23.9215 44.4554) rotate(-98.2054) scale(5.42939 9.22356)">
<stop stop-color="#4C63A1"/>
<stop offset="1" stop-color="#1A7060"/>
</radialGradient>
<radialGradient id="paint1_radial_859_764" cx="0" cy="0" r="1" gradientUnits="userSpaceOnUse" gradientTransform="translate(24.1824 39.6793) rotate(80.4884) scale(4.84234 3.91414)">
<stop offset="0.919" stop-color="#8A78CA" stop-opacity="0"/>
<stop offset="1" stop-color="#8A78CA"/>
</radialGradient>
<radialGradient id="paint2_radial_859_764" cx="0" cy="0" r="1" gradientUnits="userSpaceOnUse" gradientTransform="translate(26.4809 41.1369) rotate(169.258) scale(5.33244 4.73133)">
<stop offset="0.777" stop-color="#799D9E" stop-opacity="0"/>
<stop offset="1" stop-color="#799D9E"/>
</radialGradient>
<linearGradient id="paint3_linear_859_764" x1="25.1505" y1="40.6496" x2="24.3937" y2="40.986" gradientUnits="userSpaceOnUse">
<stop stop-color="#196A65"/>
<stop offset="1" stop-color="#196A65" stop-opacity="0"/>
</linearGradient>
<radialGradient id="paint4_radial_859_764" cx="0" cy="0" r="1" gradientUnits="userSpaceOnUse" gradientTransform="translate(26.9703 53.3844) rotate(-98.2054) scale(5.42939 9.22356)">
<stop stop-color="#4C63A1"/>
<stop offset="1" stop-color="#1A7060"/>
</radialGradient>
<radialGradient id="paint5_radial_859_764" cx="0" cy="0" r="1" gradientUnits="userSpaceOnUse" gradientTransform="translate(27.2312 48.6083) rotate(80.4884) scale(4.84234 3.91414)">
<stop offset="0.919" stop-color="#8A78CA" stop-opacity="0"/>
<stop offset="1" stop-color="#8A78CA"/>
</radialGradient>
<radialGradient id="paint6_radial_859_764" cx="0" cy="0" r="1" gradientUnits="userSpaceOnUse" gradientTransform="translate(28.6716 50.5705) rotate(-166.361) scale(4.71499 4.18347)">
<stop offset="0.767" stop-color="#799D9E" stop-opacity="0"/>
<stop offset="1" stop-color="#799D9E"/>
</radialGradient>
<linearGradient id="paint7_linear_859_764" x1="28.1994" y1="49.5765" x2="27.4425" y2="49.9129" gradientUnits="userSpaceOnUse">
<stop stop-color="#196A65"/>
<stop offset="1" stop-color="#196A65" stop-opacity="0"/>
</linearGradient>
<radialGradient id="paint8_radial_859_764" cx="0" cy="0" r="1" gradientUnits="userSpaceOnUse" gradientTransform="translate(34.7371 60.375) rotate(-108.84) scale(4.90371 10.706)">
<stop stop-color="#4C63A1"/>
<stop offset="1" stop-color="#1A7060"/>
</radialGradient>
<radialGradient id="paint9_radial_859_764" cx="0" cy="0" r="1" gradientUnits="userSpaceOnUse" gradientTransform="translate(34.1873 56.332) rotate(80.4884) scale(4.84234 3.91414)">
<stop offset="0.919" stop-color="#8A78CA" stop-opacity="0"/>
<stop offset="1" stop-color="#8A78CA"/>
</radialGradient>
<radialGradient id="paint10_radial_859_764" cx="0" cy="0" r="1" gradientUnits="userSpaceOnUse" gradientTransform="translate(35.6277 58.2942) rotate(-166.361) scale(4.71499 4.18347)">
<stop offset="0.767" stop-color="#799D9E" stop-opacity="0"/>
<stop offset="1" stop-color="#799D9E"/>
</radialGradient>
<radialGradient id="paint11_radial_859_764" cx="0" cy="0" r="1" gradientUnits="userSpaceOnUse" gradientTransform="translate(44.4389 62.4709) rotate(-108.84) scale(4.9037 10.706)">
<stop stop-color="#4C63A1"/>
<stop offset="1" stop-color="#1A7060"/>
</radialGradient>
<radialGradient id="paint12_radial_859_764" cx="0" cy="0" r="1" gradientUnits="userSpaceOnUse" gradientTransform="translate(44.3217 58.5206) rotate(90) scale(4.81786 3.89436)">
<stop offset="0.919" stop-color="#8A78CA" stop-opacity="0"/>
<stop offset="1" stop-color="#8A78CA"/>
</radialGradient>
<radialGradient id="paint13_radial_859_764" cx="0" cy="0" r="1" gradientUnits="userSpaceOnUse" gradientTransform="translate(45.3308 60.3923) rotate(-166.361) scale(4.71499 4.18347)">
<stop offset="0.673" stop-color="#799D9E" stop-opacity="0"/>
<stop offset="1" stop-color="#799D9E"/>
</radialGradient>
<radialGradient id="paint14_radial_859_764" cx="0" cy="0" r="1" gradientUnits="userSpaceOnUse" gradientTransform="translate(53.7035 63.2062) rotate(-65.5562) scale(2.84965 6.22155)">
<stop stop-color="#4C63A1"/>
<stop offset="1" stop-color="#1A7060"/>
</radialGradient>
<radialGradient id="paint15_radial_859_764" cx="0" cy="0" r="1" gradientUnits="userSpaceOnUse" gradientTransform="translate(54.4452 58.5206) rotate(90) scale(4.81786 3.89436)">
<stop offset="0.919" stop-color="#8A78CA" stop-opacity="0"/>
<stop offset="1" stop-color="#8A78CA"/>
</radialGradient>
<radialGradient id="paint16_radial_859_764" cx="0" cy="0" r="1" gradientUnits="userSpaceOnUse" gradientTransform="translate(16.9977 15.9196) rotate(2.60228) scale(2.22593 6.16605)">
<stop stop-color="#177B52"/>
<stop offset="1" stop-color="#177B52" stop-opacity="0"/>
</radialGradient>
<radialGradient id="paint17_radial_859_764" cx="0" cy="0" r="1" gradientUnits="userSpaceOnUse" gradientTransform="translate(26.4484 8.81151) rotate(-112.122) scale(2.23668 8.21152)">
<stop stop-color="#557EAB"/>
<stop offset="0.434" stop-color="#557EAB" stop-opacity="0"/>
</radialGradient>
<linearGradient id="paint18_linear_859_764" x1="25.8082" y1="7.31184" x2="22.0002" y2="17.8904" gradientUnits="userSpaceOnUse">
<stop stop-color="#529B8A"/>
<stop offset="1" stop-color="#529B8A" stop-opacity="0"/>
</linearGradient>
<radialGradient id="paint19_radial_859_764" cx="0" cy="0" r="1" gradientUnits="userSpaceOnUse" gradientTransform="translate(7.44558 9.53496) rotate(-67.5741) scale(4.59243 11.747)">
<stop stop-color="#557EAB"/>
<stop offset="0.379" stop-color="#557EAB" stop-opacity="0"/>
</radialGradient>
<radialGradient id="paint20_radial_859_764" cx="0" cy="0" r="1" gradientUnits="userSpaceOnUse" gradientTransform="translate(13.1057 16.9481) rotate(-90) scale(3.11645 4.96949)">
<stop stop-color="#1D835C"/>
<stop offset="1" stop-color="#1D835C" stop-opacity="0"/>
</radialGradient>
<linearGradient id="paint21_linear_859_764" x1="4.00852" y1="6.40193" x2="8.05149" y2="7.68274" gradientUnits="userSpaceOnUse">
<stop stop-color="#298272"/>
<stop offset="1" stop-color="#298272" stop-opacity="0"/>
</linearGradient>
<linearGradient id="paint22_linear_859_764" x1="42.8554" y1="42.6528" x2="36.792" y2="53.8394" gradientUnits="userSpaceOnUse">
<stop stop-color="#4DD29A"/>
<stop offset="1" stop-color="#52C8B0"/>
</linearGradient>
<linearGradient id="paint23_linear_859_764" x1="42.4522" y1="61.9254" x2="42.4522" y2="47.5044" gradientUnits="userSpaceOnUse">
<stop stop-color="#5EB4BF"/>
<stop offset="1" stop-color="#5EB4BF" stop-opacity="0"/>
</linearGradient>
<radialGradient id="paint24_radial_859_764" cx="0" cy="0" r="1" gradientUnits="userSpaceOnUse" gradientTransform="translate(23.8545 47.5044) rotate(-19.537) scale(13.2988 25.6225)">
<stop stop-color="#5EB4BF"/>
<stop offset="1" stop-color="#5EB4BF" stop-opacity="0"/>
</radialGradient>
<radialGradient id="paint25_radial_859_764" cx="0" cy="0" r="1" gradientUnits="userSpaceOnUse" gradientTransform="translate(15.4991 38.5344) rotate(-90) scale(12.4574 14.959)">
<stop stop-color="#5EB4BF"/>
<stop offset="1" stop-color="#5EB4BF" stop-opacity="0"/>
</radialGradient>
<linearGradient id="paint26_linear_859_764" x1="39.9962" y1="61.3863" x2="39.9962" y2="59.5319" gradientUnits="userSpaceOnUse">
<stop stop-color="#B3A1FF"/>
<stop offset="1" stop-color="#B3A1FF" stop-opacity="0"/>
</linearGradient>
<radialGradient id="paint27_radial_859_764" cx="0" cy="0" r="1" gradientUnits="userSpaceOnUse" gradientTransform="translate(35.7139 59.9718) rotate(-62.5009) scale(5.54549 36.8063)">
<stop stop-color="#B3A1FF"/>
<stop offset="0.452" stop-color="#B3A1FF" stop-opacity="0"/>
</radialGradient>
<radialGradient id="paint28_radial_859_764" cx="0" cy="0" r="1" gradientUnits="userSpaceOnUse" gradientTransform="translate(56.0617 42.654) rotate(147.426) scale(17.2716 13.6283)">
<stop stop-color="#52CB7D"/>
<stop offset="1" stop-color="#52CB7D" stop-opacity="0"/>
</radialGradient>
<radialGradient id="paint29_radial_859_764" cx="0" cy="0" r="1" gradientUnits="userSpaceOnUse" gradientTransform="translate(67.4496 51.6832) rotate(180) scale(12.8027 24.123)">
<stop stop-color="#52CB7D"/>
<stop offset="1" stop-color="#52CB7D" stop-opacity="0"/>
</radialGradient>
<radialGradient id="paint30_radial_859_764" cx="0" cy="0" r="1" gradientUnits="userSpaceOnUse" gradientTransform="translate(61.4522 48.9868) rotate(143.973) scale(7.33205 5.89536)">
<stop stop-color="#69E09B"/>
<stop offset="1" stop-color="#69E09B" stop-opacity="0"/>
</radialGradient>
<radialGradient id="paint31_radial_859_764" cx="0" cy="0" r="1" gradientUnits="userSpaceOnUse" gradientTransform="translate(6.83957 17.5519) rotate(45.2767) scale(4.93151 10.2316)">
<stop stop-color="#90F0B1"/>
<stop offset="0.729" stop-color="#90F0B1" stop-opacity="0"/>
</radialGradient>
<radialGradient id="paint32_radial_859_764" cx="0" cy="0" r="1" gradientUnits="userSpaceOnUse" gradientTransform="translate(15.1605 35.1749) rotate(-37.5982) scale(15.9036 11.3271)">
<stop stop-color="#6EB8DB"/>
<stop offset="1" stop-color="#6EB8DB" stop-opacity="0"/>
</radialGradient>
<radialGradient id="paint33_radial_859_764" cx="0" cy="0" r="1" gradientUnits="userSpaceOnUse" gradientTransform="translate(15.4646 33.4564) rotate(-90) scale(4.58203 31.6192)">
<stop stop-color="#B3A1FF"/>
<stop offset="0.27" stop-color="#B3A1FF" stop-opacity="0"/>
</radialGradient>
<radialGradient id="paint34_radial_859_764" cx="0" cy="0" r="1" gradientUnits="userSpaceOnUse" gradientTransform="translate(93.3936 27.02) rotate(180) scale(89.2821 48.9199)">
<stop offset="0.971" stop-color="#90F0B1" stop-opacity="0"/>
<stop offset="1" stop-color="#90F0B1"/>
</radialGradient>
<radialGradient id="paint35_radial_859_764" cx="0" cy="0" r="1" gradientUnits="userSpaceOnUse" gradientTransform="translate(26.0776 47.1011) rotate(-15.2551) scale(4.60969 15.3597)">
<stop stop-color="#8CD5BE"/>
<stop offset="1" stop-color="#8AD4BD" stop-opacity="0"/>
</radialGradient>
<radialGradient id="paint36_radial_859_764" cx="0" cy="0" r="1" gradientUnits="userSpaceOnUse" gradientTransform="translate(11.1866 10.309) rotate(74.6237) scale(11.1815 16.7158)">
<stop stop-color="#55E695"/>
<stop offset="1" stop-color="#55E695" stop-opacity="0"/>
</radialGradient>
<linearGradient id="paint37_linear_859_764" x1="34.4999" y1="15.9606" x2="34.4999" y2="17.0473" gradientUnits="userSpaceOnUse">
<stop stop-color="#72DD98"/>
<stop offset="1" stop-color="#72DD98" stop-opacity="0"/>
</linearGradient>
<linearGradient id="paint38_linear_859_764" x1="14.6215" y1="22.9878" x2="12.7391" y2="22.9878" gradientUnits="userSpaceOnUse">
<stop offset="0.225" stop-color="#594C4F"/>
<stop offset="1" stop-color="#392833"/>
</linearGradient>
<linearGradient id="paint39_linear_859_764" x1="15.1304" y1="26.3149" x2="15.1304" y2="23.2401" gradientUnits="userSpaceOnUse">
<stop stop-color="#492847"/>
<stop offset="1" stop-color="#552D52" stop-opacity="0"/>
</linearGradient>
<radialGradient id="paint40_radial_859_764" cx="0" cy="0" r="1" gradientUnits="userSpaceOnUse" gradientTransform="translate(13.3468 23.897) rotate(-104.895) scale(3.77773 4.0834)">
<stop offset="0.814" stop-color="#594C4F" stop-opacity="0"/>
<stop offset="1" stop-color="#594C4F"/>
</radialGradient>
<linearGradient id="paint41_linear_859_764" x1="7.98464" y1="6.03104" x2="16.5881" y2="13.7181" gradientUnits="userSpaceOnUse">
<stop stop-color="#569C8F"/>
<stop offset="1" stop-color="#529B8A" stop-opacity="0"/>
</linearGradient>
</defs>
</svg>
