<svg width="20" height="20" viewBox="0 0 101 99" fill="none" xmlns="http://www.w3.org/2000/svg">
<circle cx="49" cy="49" r="49" fill="#A7C1CF"/>
<path d="M73.8305 40.5413L72.4256 37.0287L69.9346 30.8C67.796 25.4537 62.6952 22 56.9369 22H41.0632C35.3061 22 30.204 25.4537 28.0655 30.8L25.5744 37.0287L24.1695 40.5413C21.1548 41.6875 19.0024 44.5825 19.0024 48V54C19.0024 56.015 19.7724 57.8337 21.0023 59.2412V66C21.0023 68.2088 22.7934 70 25.002 70H29.0016C31.2102 70 33.0013 68.2088 33.0013 66V62H64.9987V66C64.9987 68.2088 66.7898 70 68.9984 70H72.9981C75.2067 70 76.9978 68.2088 76.9978 66V59.2412C78.2277 57.835 78.9976 56.0163 78.9976 54V48C78.9976 44.5825 76.8453 41.6875 73.8305 40.5413ZM35.4924 33.7712C36.4035 31.4937 38.6096 30 41.0632 30H56.9369C59.3904 30 61.5965 31.4937 62.5077 33.7712L64.9987 40H33.0013L35.4924 33.7712ZM29.0016 53.975C26.6018 53.975 25.002 52.38 25.002 49.9875C25.002 47.595 26.6018 46 29.0016 46C31.4014 46 35.0011 49.5888 35.0011 51.9813C35.0011 54.3737 31.4014 53.975 29.0016 53.975ZM68.9984 53.975C66.5986 53.975 62.9989 54.3737 62.9989 51.9813C62.9989 49.5888 66.5986 46 68.9984 46C71.3982 46 72.9981 47.595 72.9981 49.9875C72.9981 52.38 71.3982 53.975 68.9984 53.975Z" fill="white"/>
<circle cx="85" cy="83" r="14.5" fill="#D9D9D9" stroke="#F2F6F8" stroke-width="3"/>
<path d="M85.6349 81.662H89.9819V84.123H85.6349V88.447H83.1739V84.123H78.8269V81.662H83.1739V77.292H85.6349V81.662Z" fill="white"/>
</svg>
