<svg width="60" height="60" viewBox="0 0 67 67" fill="none" xmlns="http://www.w3.org/2000/svg">
<g clip-path="url(#clip0_859_717)">
<path d="M27.2188 57.1699L29.4277 51.6476" stroke="#2F2F2F" stroke-width="0.773438" stroke-miterlimit="10" stroke-linecap="round"/>
<path d="M39.0066 57.1699C38.8185 57.1702 38.6334 57.1223 38.4691 57.0308C38.3048 56.9392 38.1666 56.8071 38.0679 56.6469C37.9692 56.4868 37.9132 56.304 37.9053 56.1161C37.8973 55.9281 37.9377 55.7413 38.0225 55.5734L43.55 44.5236C43.6147 44.3937 43.7043 44.2779 43.8139 44.1828C43.9234 44.0877 44.0507 44.0152 44.1884 43.9694C44.326 43.9237 44.4714 43.9056 44.6161 43.9163C44.7608 43.927 44.9019 43.9661 45.0314 44.0316C45.5758 44.3038 45.8008 44.9685 45.5234 45.5129L39.9959 56.5627C39.8022 56.95 39.4097 57.1699 39.0066 57.1699Z" fill="#2F2F2F"/>
<path d="M45.3664 47.2245C44.2986 47.2245 43.0371 48.0045 42.5607 48.9571L40.98 52.1187C40.5036 53.0713 39.2369 53.8513 38.1743 53.8513H28.7891C27.7213 53.8513 26.8472 52.9771 26.8472 51.9093V50.2657C26.8472 49.1979 26.0201 48.6012 25.0047 48.9362L0.999806 58.4837C-0.491991 59.316 0.0942595 61.5877 1.8059 61.5877H55.118C56.1858 61.5877 56.6936 60.7973 56.2434 59.8289L51.2393 48.9885C50.7944 48.0202 49.5539 47.2298 48.4861 47.2298H45.3664V47.2245Z" fill="#ED6C30"/>
<path d="M67.0001 43.5395C67.0001 42.5293 66.1731 41.7023 65.1628 41.7023H61.1009C60.0907 41.7023 58.9391 42.4613 58.5413 43.393L53.3593 55.4844C52.9615 56.4109 53.464 57.1751 54.4742 57.1751H65.1628C66.1731 57.1751 67.0001 56.3481 67.0001 55.3378V43.5395Z" fill="#ED6C30"/>
<path d="M66.9999 46.1201H61.4724L62.5821 43.9112H66.9999V46.1201ZM66.9999 50.5431H61.4724L62.5821 48.329H66.9999V50.5431ZM66.9999 54.961H61.4724L62.5821 52.7521H66.9999V54.961Z" fill="#FCC21B"/>
<path d="M13.9601 64.9062C17.6228 64.9062 20.592 61.937 20.592 58.2743C20.592 54.6116 17.6228 51.6423 13.9601 51.6423C10.2974 51.6423 7.32812 54.6116 7.32812 58.2743C7.32812 61.937 10.2974 64.9062 13.9601 64.9062Z" fill="#2F2F2F"/>
<path d="M13.96 62.6921C16.3999 62.6921 18.3779 60.7142 18.3779 58.2743C18.3779 55.8344 16.3999 53.8565 13.96 53.8565C11.5202 53.8565 9.54224 55.8344 9.54224 58.2743C9.54224 60.7142 11.5202 62.6921 13.96 62.6921Z" fill="#78A3AD"/>
<path d="M53.7413 64.9062C57.4041 64.9062 60.3733 61.937 60.3733 58.2743C60.3733 54.6116 57.4041 51.6423 53.7413 51.6423C50.0786 51.6423 47.1094 54.6116 47.1094 58.2743C47.1094 61.937 50.0786 64.9062 53.7413 64.9062Z" fill="#2F2F2F"/>
<path d="M53.7413 62.6921C56.1812 62.6921 58.1591 60.7142 58.1591 58.2743C58.1591 55.8344 56.1812 53.8565 53.7413 53.8565C51.3014 53.8565 49.3235 55.8344 49.3235 58.2743C49.3235 60.7142 51.3014 62.6921 53.7413 62.6921Z" fill="#78A3AD"/>
</g>
<defs>
<clipPath id="clip0_859_717">
<rect width="67" height="67" fill="white"/>
</clipPath>
</defs>
</svg>
