<svg width="67" height="67" viewBox="0 0 67 67" fill="none" xmlns="http://www.w3.org/2000/svg">
<path d="M65.6758 45.0994L61.347 44.3194C61.3993 43.3563 61.3941 42.3827 61.347 41.4091L65.7439 40.7548C65.8889 40.7336 66.0284 40.6839 66.1542 40.6087C66.2801 40.5336 66.3899 40.4343 66.4774 40.3167C66.5649 40.1991 66.6284 40.0653 66.6642 39.9232C66.7 39.781 66.7074 39.6332 66.686 39.4881C66.5971 38.8809 66.0265 38.4622 65.4193 38.5459L61.1376 39.1845C60.6665 36.0544 59.4626 32.9347 57.641 30.1238C58.1906 24.879 59.2428 10.6624 54.9767 7.7992C51.5744 5.51702 43.4821 13.9862 40.8753 17.0274C40.2734 17.7288 39.7238 18.3622 39.2213 18.938C37.3997 18.6605 35.5467 18.5087 33.699 18.5087C31.8513 18.5035 30.0035 18.6605 28.182 18.938C27.6795 18.3622 27.1299 17.7288 26.5279 17.0274C23.9212 13.9862 15.8289 5.51702 12.4317 7.7992C8.16573 10.6624 9.22307 24.879 9.76745 30.1238C7.95112 32.9294 6.73674 36.0544 6.27088 39.1845L1.98917 38.5459C1.38198 38.4622 0.811432 38.8757 0.717213 39.4881C0.622994 40.0953 1.04698 40.6658 1.65417 40.7548L6.05104 41.4091C6.00393 42.3827 5.9987 43.3563 6.05104 44.3194L1.72745 45.0994C1.45198 45.1476 1.20468 45.2976 1.03457 45.5196C0.864451 45.7415 0.783927 46.0193 0.80895 46.2979C0.833973 46.5764 0.962717 46.8354 1.16967 47.0235C1.37663 47.2116 1.64669 47.3151 1.92635 47.3135C1.98917 47.3135 2.05721 47.3083 2.12526 47.2978L6.28135 46.5493C6.45409 47.6485 6.70534 48.732 7.06651 49.7841L3.67463 50.8572C3.39305 50.948 3.15869 51.1463 3.02246 51.409C2.88623 51.6717 2.85913 51.9775 2.94706 52.26C3.03674 52.5424 3.23487 52.7776 3.4979 52.9141C3.76093 53.0505 4.06736 53.0769 4.34987 52.9876L7.93542 51.8517C8.97182 53.8879 10.4898 55.7618 12.6359 57.3635C15.8027 59.7242 19.7389 61.3259 23.8008 62.1948C25.3397 62.5246 29.3283 63.294 33.5106 63.294C37.6928 63.294 42.0688 62.5246 43.6129 62.1948C47.6696 61.3259 51.611 59.7242 54.7778 57.3635C56.9239 55.7618 58.4419 53.8879 59.4783 51.8517L63.0586 52.9876C63.3411 53.0769 63.6475 53.0505 63.9106 52.9141C64.1736 52.7776 64.3717 52.5424 64.4614 52.26C64.6499 51.6737 64.3253 51.0456 63.7391 50.8572L60.3472 49.7789C60.7084 48.732 60.9649 47.6485 61.1324 46.544L65.2937 47.2926C65.585 47.3432 65.8845 47.2771 66.1274 47.1086C66.3703 46.9401 66.5372 46.6828 66.5918 46.3922C66.6363 46.1001 66.5657 45.802 66.3948 45.5609C66.2239 45.3197 65.9662 45.1543 65.6758 45.0994Z" fill="#F79329"/>
<path d="M37.1379 54.0135C37.2478 54.2543 37.0489 54.6417 36.9914 54.8615C36.9181 55.1389 36.85 55.4111 36.7663 55.6781C36.3685 56.9971 35.688 58.2324 34.2276 58.5203C32.8771 58.7873 31.579 57.866 31.0713 56.6464C30.8828 56.2015 30.7363 55.7409 30.5792 55.2855C30.4955 55.0342 30.4117 54.783 30.3332 54.537C30.2756 54.359 30.1239 54.0763 30.1448 53.8931C30.8881 53.846 31.7517 53.511 32.3903 53.1342C32.5997 53.0085 32.8353 52.9405 33.0289 52.7887C33.2017 52.6526 33.3116 52.4589 33.5314 52.3909C33.7513 52.6264 34.1229 52.7573 34.3951 52.9405C34.7249 53.1603 35.0599 53.354 35.4158 53.5215C35.7456 53.6785 36.1382 53.6785 36.4784 53.7675C36.6564 53.8146 36.9547 53.7885 37.0856 53.9402C37.1117 53.9612 37.1274 53.9821 37.1379 54.0135Z" fill="#ED6C30"/>
<path d="M24.5597 42.4351C24.5597 44.8377 22.8271 46.7796 20.6967 46.7796C18.5663 46.7796 16.8337 44.8324 16.8337 42.4351C16.8337 40.0273 18.5663 38.0853 20.6967 38.0853C22.8271 38.0801 24.5597 40.0273 24.5597 42.4351ZM42.5345 42.4351C42.5345 44.8377 44.2619 46.7796 46.3975 46.7796C48.5279 46.7796 50.2605 44.8324 50.2605 42.4351C50.2605 40.0273 48.5279 38.0853 46.3975 38.0853C44.2671 38.0801 42.5345 40.0273 42.5345 42.4351ZM33.7512 53.0399C33.3482 53.0399 33.0237 52.7154 33.0237 52.3124V48.0464C33.0237 47.6433 33.3482 47.3188 33.7512 47.3188C34.1543 47.3188 34.4788 47.6433 34.4788 48.0464V52.3124C34.4788 52.7154 34.1543 53.0399 33.7512 53.0399Z" fill="#2F2F2F"/>
<path d="M30.0924 54.7516C29.8673 54.7516 29.6265 54.7411 29.3805 54.7201C26.4179 54.4584 25.1145 52.1605 24.8371 50.9776C24.7838 50.7464 24.8244 50.5036 24.9501 50.3024C25.0757 50.1012 25.276 49.9581 25.5071 49.9045C25.6212 49.8773 25.7396 49.873 25.8554 49.8917C25.9712 49.9105 26.0822 49.9519 26.1819 50.0137C26.2816 50.0755 26.3681 50.1564 26.4365 50.2517C26.5048 50.3471 26.5537 50.455 26.5801 50.5693C26.6063 50.6792 27.1612 52.7259 29.5376 52.9405C32.0239 53.1655 32.987 51.8622 33.0289 51.8046C33.3168 51.4068 33.8664 51.3073 34.2694 51.5848C34.6725 51.8622 34.7772 52.4066 34.505 52.8148C34.4474 52.8986 33.1598 54.7516 30.0924 54.7516Z" fill="#2F2F2F"/>
<path d="M37.4361 54.7516C34.3688 54.7516 33.0811 52.8986 33.0236 52.8148C32.7461 52.4066 32.8561 51.8465 33.2643 51.5691C33.6779 51.2916 34.2327 51.4016 34.5101 51.8098C34.5415 51.8517 35.5204 53.1551 37.991 52.9352C40.4145 52.7206 40.9432 50.5902 40.9484 50.5693C41.0636 50.0877 41.5451 49.7894 42.0215 49.8993C42.503 50.0145 42.8014 50.4908 42.6915 50.9723C42.414 52.1501 41.1054 54.4532 38.148 54.7149C37.8968 54.7411 37.6612 54.7516 37.4361 54.7516ZM30.9979 48.0149C31.0397 48.5645 31.4114 49.1403 31.9872 49.491C32.4478 49.7789 33.1021 49.9202 33.7459 49.9202C34.3845 49.9202 35.0388 49.7789 35.4994 49.491C36.0752 49.1351 36.4468 48.5645 36.4887 48.0149C36.5306 47.4915 36.4102 46.9576 35.8397 46.5912C35.5256 46.387 35.133 46.2509 34.73 46.1777C34.5782 46.1515 34.1804 46.0834 33.7616 46.0834C33.3481 46.0834 32.9136 46.1462 32.7566 46.1777C32.3536 46.2509 31.961 46.387 31.6469 46.5912C31.0816 46.9628 30.956 47.4915 30.9979 48.0149Z" fill="#2F2F2F"/>
<path d="M33.725 50.7002C32.9189 50.7002 32.1337 50.5013 31.5736 50.1558C30.8042 49.6795 30.2808 48.8839 30.2179 48.0778C30.129 46.9053 30.7204 46.2719 31.2229 45.9421C31.6103 45.6961 32.0918 45.5129 32.6153 45.4187C32.8247 45.3768 33.301 45.314 33.7564 45.314C34.2484 45.314 34.6986 45.3873 34.8661 45.4187C35.3895 45.5129 35.8711 45.6961 36.2532 45.9421C36.7609 46.2719 37.3524 46.9105 37.2582 48.083C37.1954 48.8839 36.6772 49.6795 35.9025 50.1611C35.3424 50.5065 34.5572 50.7054 33.7511 50.7054H33.725V50.7002ZM33.7616 46.8634C33.4057 46.8634 33.0236 46.921 32.9032 46.9419C32.5786 47.0047 32.2803 47.1094 32.0709 47.2455C31.8668 47.3764 31.7464 47.5439 31.7778 47.9522C31.804 48.2662 32.0447 48.6064 32.4007 48.8263C32.72 49.0252 33.2172 49.1404 33.7354 49.1404V49.9203L33.7459 49.1404C34.285 49.1404 34.7823 49.02 35.0964 48.8263C35.4471 48.6117 35.6983 48.261 35.7193 47.9522C35.7559 47.5439 35.6303 47.3764 35.4261 47.2455C35.2168 47.1094 34.9184 47.0047 34.5991 46.9419C34.5101 46.9314 34.1385 46.8634 33.7616 46.8634Z" fill="#2F2F2F"/>
<path d="M33.7513 59.4939C32.27 59.4939 30.8462 58.5256 30.2129 57.0024C29.9197 56.2957 29.3282 54.4428 29.3021 54.3642C29.145 53.8774 29.4172 53.354 29.904 53.197C30.3908 53.0399 30.9143 53.3121 31.0713 53.7989C31.2754 54.4375 31.7151 55.7828 31.9245 56.2853C32.249 57.0652 33.1075 57.7928 34.0444 57.6096C34.9029 57.4421 35.4682 56.7616 35.8764 55.4111C35.9288 55.2279 36.0387 54.8144 36.1434 54.4271C36.2219 54.1235 36.3004 53.8303 36.3423 53.6785C36.4836 53.1865 36.9861 52.8986 37.4886 53.0399C37.9807 53.1813 38.2686 53.6942 38.1272 54.1863C38.0853 54.3328 38.0121 54.6103 37.9336 54.9034C37.8289 55.3064 37.7137 55.7409 37.6509 55.945C37.4206 56.6988 36.7296 58.9705 34.4004 59.4311C34.191 59.473 33.9711 59.4939 33.7513 59.4939Z" fill="#2F2F2F"/>
</svg>
