<svg width="20" height="20" viewBox="0 0 20 20" fill="none" xmlns="http://www.w3.org/2000/svg">
<path d="M10 1.66663C7.78988 1.66663 5.67027 2.5446 4.10746 4.1074C2.54466 5.67021 1.66669 7.78982 1.66669 9.99996C1.66669 12.2101 2.54466 14.3297 4.10746 15.8925C5.67027 17.4553 7.78988 18.3333 10 18.3333C12.2102 18.3333 14.3298 17.4553 15.8926 15.8925C17.4554 14.3297 18.3334 12.2101 18.3334 9.99996C18.3334 7.78982 17.4554 5.67021 15.8926 4.1074C14.3298 2.5446 12.2102 1.66663 10 1.66663ZM10.8334 14.1666C10.8334 14.3876 10.7456 14.5996 10.5893 14.7559C10.433 14.9122 10.221 15 10 15C9.77901 15 9.56705 14.9122 9.41077 14.7559C9.25449 14.5996 9.16669 14.3876 9.16669 14.1666C9.16669 13.9456 9.25449 13.7337 9.41077 13.5774C9.56705 13.4211 9.77901 13.3333 10 13.3333C10.221 13.3333 10.433 13.4211 10.5893 13.5774C10.7456 13.7337 10.8334 13.9456 10.8334 14.1666ZM8.33335 7.92163C8.33335 8.14264 8.24556 8.3546 8.08928 8.51088C7.933 8.66716 7.72103 8.75496 7.50002 8.75496C7.27901 8.75496 7.06705 8.66716 6.91077 8.51088C6.75448 8.3546 6.66669 8.14264 6.66669 7.92163C6.66669 6.93996 7.12002 6.17829 7.78335 5.68329C8.42335 5.20829 9.23335 4.99663 10 4.99663C10.7667 4.99663 11.575 5.20829 12.2167 5.68329C12.88 6.17663 13.3334 6.93996 13.3334 7.91996C13.3334 8.63496 13.1084 9.17829 12.7217 9.59663C12.4167 9.92663 12.025 10.1516 11.755 10.305L11.67 10.355C11.3584 10.5383 11.1767 10.6633 11.0534 10.825C10.9467 10.9616 10.8334 11.1916 10.8334 11.665C10.8334 11.886 10.7456 12.0979 10.5893 12.2542C10.433 12.4105 10.221 12.4983 10 12.4983C9.77901 12.4983 9.56705 12.4105 9.41077 12.2542C9.25449 12.0979 9.16669 11.886 9.16669 11.665C9.16669 10.89 9.36669 10.2866 9.73002 9.81163C10.0734 9.36163 10.5167 9.09829 10.83 8.91496L10.8767 8.88829C11.205 8.69829 11.3734 8.59996 11.4967 8.46496C11.58 8.37663 11.6667 8.24496 11.6667 7.91996C11.6736 7.74472 11.6365 7.57054 11.5587 7.41333C11.481 7.25611 11.3651 7.12088 11.2217 7.01996C10.925 6.79996 10.4834 6.66496 10 6.66496C9.51669 6.66496 9.07669 6.80163 8.77835 7.02329C8.63514 7.12442 8.51943 7.2597 8.44172 7.41686C8.36402 7.57402 8.32677 7.7481 8.33335 7.92329V7.92163Z" fill="#444444"/>
</svg>
