<svg width="12" height="17" viewBox="0 0 12 17" fill="none" xmlns="http://www.w3.org/2000/svg">
<path d="M0 2.5625C0 1.93261 0.250222 1.32852 0.695621 0.883121C1.14102 0.437723 1.74511 0.1875 2.375 0.1875H9.5C10.1299 0.1875 10.734 0.437723 11.1794 0.883121C11.6248 1.32852 11.875 1.93261 11.875 2.5625V14.4375C11.875 15.0674 11.6248 15.6715 11.1794 16.1169C10.734 16.5623 10.1299 16.8125 9.5 16.8125H2.375C1.74511 16.8125 1.14102 16.5623 0.695621 16.1169C0.250222 15.6715 0 15.0674 0 14.4375V2.5625ZM3.5625 9.6875C3.87744 9.6875 4.17949 9.56239 4.40219 9.33969C4.62489 9.11699 4.75 8.81494 4.75 8.5C4.75 8.18506 4.62489 7.88301 4.40219 7.66031C4.17949 7.43761 3.87744 7.3125 3.5625 7.3125C3.24756 7.3125 2.94551 7.43761 2.72281 7.66031C2.50011 7.88301 2.375 8.18506 2.375 8.5C2.375 8.81494 2.50011 9.11699 2.72281 9.33969C2.94551 9.56239 3.24756 9.6875 3.5625 9.6875Z" fill="#444444"/>
</svg>
