<svg width="22" height="22" viewBox="0 0 22 22" fill="none" xmlns="http://www.w3.org/2000/svg">
<g clip-path="url(#clip0_800_511)">
<path fill-rule="evenodd" clip-rule="evenodd" d="M14.6667 3.45582V18.5442C14.6666 18.7438 14.6231 18.9411 14.539 19.1223C14.455 19.3034 14.3325 19.4641 14.1801 19.5931C14.0277 19.7221 13.849 19.8164 13.6565 19.8694C13.464 19.9224 13.2622 19.9328 13.0653 19.8999L5.19844 18.5891C4.77036 18.5177 4.3815 18.2967 4.10102 17.9656C3.82054 17.6344 3.66663 17.2145 3.66669 16.7805V5.21949C3.66663 4.7855 3.82054 4.36557 4.10102 4.0344C4.3815 3.70323 4.77036 3.48229 5.19844 3.4109L13.0653 2.10007C13.2623 2.06717 13.4641 2.07761 13.6567 2.13064C13.8493 2.18368 14.0281 2.27804 14.1805 2.40717C14.3329 2.53629 14.4554 2.69708 14.5393 2.87834C14.6233 3.05959 14.6667 3.25697 14.6667 3.45674V3.45582ZM16.5 4.58332C16.9625 4.58317 17.408 4.75786 17.7472 5.07236C18.0863 5.38686 18.2941 5.81793 18.3288 6.27915L18.3334 6.41665V15.5833C18.3335 16.0458 18.1588 16.4913 17.8443 16.8305C17.5298 17.1696 17.0987 17.3774 16.6375 17.4121L16.5 17.4167H15.5834V4.58332H16.5ZM10.5417 9.62499C10.177 9.62499 9.82728 9.76985 9.56941 10.0277C9.31155 10.2856 9.16669 10.6353 9.16669 11C9.16669 11.3647 9.31155 11.7144 9.56941 11.9723C9.82728 12.2301 10.177 12.375 10.5417 12.375C10.9064 12.375 11.2561 12.2301 11.514 11.9723C11.7718 11.7144 11.9167 11.3647 11.9167 11C11.9167 10.6353 11.7718 10.2856 11.514 10.0277C11.2561 9.76985 10.9064 9.62499 10.5417 9.62499Z" fill="#444444"/>
</g>
<defs>
<clipPath id="clip0_800_511">
<rect width="22" height="22" fill="white"/>
</clipPath>
</defs>
</svg>
