<svg width="64" height="37" viewBox="0 0 64 37" fill="none" xmlns="http://www.w3.org/2000/svg">
<path d="M0 20.5C0 13.5964 5.59644 8 12.5 8H51.5C58.4036 8 64 13.5964 64 20.5V20.5C64 27.4036 58.4036 33 51.5 33H12.5C5.59644 33 0 27.4036 0 20.5V20.5Z" fill="#6DADDB"/>
<path d="M27.1242 16.04V17.538H30.1342V16.04H27.1242ZM23.4702 14.08V15.48C23.4702 17.314 22.5742 19.106 20.4322 19.82L21.4122 21.276C23.8622 20.38 24.9682 18.126 24.9682 15.48V14.08H23.4702ZM23.8762 14.08V15.494C23.8762 17.944 24.9402 20.114 27.2642 20.954L28.2582 19.526C26.2142 18.826 25.3602 17.16 25.3602 15.494V14.08H23.8762ZM29.4902 13.296V22.858H31.3522V13.296H29.4902ZM22.7702 24.538V26.022H31.6322V24.538H22.7702ZM22.7702 21.892V25.364H24.6462V21.892H22.7702ZM33.1151 19.19V20.702H34.0111C35.9431 20.702 37.2031 20.66 38.6871 20.408L38.5191 18.924C37.0911 19.162 35.8871 19.19 34.0111 19.19H33.1151ZM33.1151 14.15V20.016H34.9071V15.634H38.2251V14.15H33.1151ZM34.3751 16.684V18.084H38.0851V16.684H34.3751ZM41.9631 13.282V21.192H43.7271V13.282H41.9631ZM40.4091 16.46V17.944H42.4671V16.46H40.4091ZM39.1911 13.52V21.108H40.9271V13.52H39.1911ZM34.8231 21.752V23.236H41.8791V26.246H43.7271V21.752H34.8231Z" fill="white"/>
</svg>
