<svg width="33" height="33" viewBox="0 0 33 33" fill="none" xmlns="http://www.w3.org/2000/svg">
<path fill-rule="evenodd" clip-rule="evenodd" d="M16.5 29.7C20.0009 29.7 23.3584 28.3093 25.8339 25.8338C28.3093 23.3583 29.7 20.0009 29.7 16.5C29.7 12.9991 28.3093 9.64167 25.8339 7.16619C23.3584 4.69071 20.0009 3.3 16.5 3.3C12.9992 3.3 9.64172 4.69071 7.16624 7.16619C4.69076 9.64167 3.30005 12.9991 3.30005 16.5C3.30005 20.0009 4.69076 23.3583 7.16624 25.8338C9.64172 28.3093 12.9992 29.7 16.5 29.7ZM13.662 11.913C13.4275 11.6944 13.1172 11.5754 12.7966 11.5811C12.476 11.5867 12.1701 11.7166 11.9434 11.9433C11.7166 12.1701 11.5868 12.4759 11.5811 12.7965C11.5755 13.1171 11.6945 13.4274 11.913 13.662L14.751 16.5L11.913 19.338C11.7915 19.4513 11.6939 19.5879 11.6263 19.7397C11.5587 19.8915 11.5223 20.0554 11.5194 20.2215C11.5164 20.3877 11.547 20.5527 11.6092 20.7068C11.6715 20.8609 11.7641 21.0009 11.8816 21.1184C11.9991 21.2359 12.1391 21.3286 12.2932 21.3908C12.4473 21.453 12.6124 21.4836 12.7785 21.4807C12.9447 21.4777 13.1085 21.4414 13.2603 21.3737C13.4121 21.3061 13.5488 21.2086 13.662 21.087L16.5 18.249L19.338 21.087C19.4513 21.2086 19.588 21.3061 19.7398 21.3737C19.8916 21.4414 20.0554 21.4777 20.2216 21.4807C20.3877 21.4836 20.5528 21.453 20.7069 21.3908C20.861 21.3286 21.0009 21.2359 21.1185 21.1184C21.236 21.0009 21.3286 20.8609 21.3909 20.7068C21.4531 20.5527 21.4837 20.3877 21.4807 20.2215C21.4778 20.0554 21.4414 19.8915 21.3738 19.7397C21.3062 19.5879 21.2086 19.4513 21.087 19.338L18.249 16.5L21.087 13.662C21.3056 13.4274 21.4246 13.1171 21.419 12.7965C21.4133 12.4759 21.2835 12.1701 21.0567 11.9433C20.83 11.7166 20.5241 11.5867 20.2035 11.5811C19.8829 11.5754 19.5726 11.6944 19.338 11.913L16.5 14.751L13.662 11.913Z" fill="black"/>
</svg>
