<svg width="49" height="48" viewBox="0 0 49 48" fill="none" xmlns="http://www.w3.org/2000/svg">
<path d="M0.935 36.904V43.339H5.5V36.904H0.935ZM4.609 37.641V42.602H1.826V37.641H4.609ZM7.271 35.914V45.858H8.195V35.914H7.271ZM7.975 39.885V40.655H9.823V39.885H7.975ZM17.3351 35.903V45.869H18.2481V35.903H17.3351ZM13.0011 36.673C11.5381 36.673 10.4821 38.026 10.4821 40.138C10.4821 42.261 11.5381 43.614 13.0011 43.614C14.4751 43.614 15.5311 42.261 15.5311 40.138C15.5311 38.026 14.4751 36.673 13.0011 36.673ZM13.0011 37.498C13.9801 37.498 14.6511 38.532 14.6511 40.138C14.6511 41.755 13.9801 42.811 13.0011 42.811C12.0331 42.811 11.3511 41.755 11.3511 40.138C11.3511 38.532 12.0331 37.498 13.0011 37.498ZM27.3003 35.914V45.858H28.1803V35.914H27.3003ZM24.0223 39.698V40.501H25.6723V39.698H24.0223ZM25.3753 36.156V45.341H26.2443V36.156H25.3753ZM19.7763 37.168V37.916H24.3193V37.168H19.7763ZM19.6883 43.416C20.9643 43.416 23.0433 43.372 24.5943 43.075L24.5283 42.404C23.0213 42.602 20.8653 42.646 19.5783 42.646L19.6883 43.416ZM20.5903 37.652V42.855H21.4263V37.652H20.5903ZM22.6583 37.652V42.855H23.4943V37.652H22.6583ZM36.4734 35.903V45.869H37.3864V35.903H36.4734ZM32.1394 36.673C30.6764 36.673 29.6204 38.026 29.6204 40.138C29.6204 42.261 30.6764 43.614 32.1394 43.614C33.6134 43.614 34.6694 42.261 34.6694 40.138C34.6694 38.026 33.6134 36.673 32.1394 36.673ZM32.1394 37.498C33.1184 37.498 33.7894 38.532 33.7894 40.138C33.7894 41.755 33.1184 42.811 32.1394 42.811C31.1714 42.811 30.4894 41.755 30.4894 40.138C30.4894 38.532 31.1714 37.498 32.1394 37.498ZM41.4556 37.333V38.95C41.4556 40.666 40.2566 42.536 38.8156 43.218L39.3436 43.944C40.9276 43.163 42.1926 41.051 42.1926 38.95V37.333H41.4556ZM41.6316 37.333V38.95C41.6316 41.018 42.9076 42.954 44.5136 43.702L45.0306 42.976C43.5676 42.349 42.3686 40.633 42.3686 38.95V37.333H41.6316ZM39.1456 36.926V37.696H44.7006V36.926H39.1456ZM46.0426 35.914V45.858H46.9556V35.914H46.0426Z" fill="#292929"/>
<path d="M33.625 28.5C33.625 28.5 36 28.5 36 26.125C36 23.75 33.625 16.625 24.125 16.625C14.625 16.625 12.25 23.75 12.25 26.125C12.25 28.5 14.625 28.5 14.625 28.5H33.625ZM14.6772 26.125C14.6597 26.1226 14.6423 26.1194 14.625 26.1155C14.6274 25.4885 15.0216 23.6693 16.43 22.0305C17.741 20.4939 20.0447 19 24.125 19C28.2029 19 30.5066 20.4963 31.82 22.0305C33.2284 23.6693 33.6203 25.4909 33.625 26.1155L33.606 26.1203C33.595 26.1221 33.5839 26.1237 33.5728 26.125H14.6772ZM24.125 11.875C25.3848 11.875 26.593 11.3746 27.4838 10.4838C28.3746 9.59296 28.875 8.38478 28.875 7.125C28.875 5.86522 28.3746 4.65704 27.4838 3.76624C26.593 2.87544 25.3848 2.375 24.125 2.375C22.8652 2.375 21.657 2.87544 20.7662 3.76624C19.8754 4.65704 19.375 5.86522 19.375 7.125C19.375 8.38478 19.8754 9.59296 20.7662 10.4838C21.657 11.3746 22.8652 11.875 24.125 11.875ZM31.25 7.125C31.25 8.06067 31.0657 8.98717 30.7076 9.85162C30.3496 10.7161 29.8248 11.5015 29.1631 12.1631C28.5015 12.8248 27.7161 13.3496 26.8516 13.7076C25.9872 14.0657 25.0607 14.25 24.125 14.25C23.1893 14.25 22.2628 14.0657 21.3984 13.7076C20.5339 13.3496 19.7485 12.8248 19.0869 12.1631C18.4252 11.5015 17.9004 10.7161 17.5424 9.85162C17.1843 8.98717 17 8.06067 17 7.125C17 5.23533 17.7507 3.42306 19.0869 2.08686C20.4231 0.750668 22.2353 0 24.125 0C26.0147 0 27.8269 0.750668 29.1631 2.08686C30.4993 3.42306 31.25 5.23533 31.25 7.125Z" fill="#444444"/>
</svg>
