<svg width="48" height="47" viewBox="0 0 48 47" fill="none" xmlns="http://www.w3.org/2000/svg">
<path d="M7.293 44H6.138L1.936 37.477H1.892C1.89933 37.609 1.90667 37.7557 1.914 37.917C1.92867 38.0783 1.93967 38.2543 1.947 38.445C1.95433 38.6283 1.96167 38.819 1.969 39.017C1.97633 39.215 1.98 39.413 1.98 39.611V44H1.067V36.146H2.211L6.402 42.647H6.446C6.43867 42.559 6.43133 42.438 6.424 42.284C6.41667 42.1227 6.40933 41.9467 6.402 41.756C6.39467 41.558 6.38733 41.3563 6.38 41.151C6.37267 40.9457 6.369 40.755 6.369 40.579V36.146H7.293V44ZM9.86442 44H8.87442V36.146H13.2634V37.015H9.86442V39.798H13.0544V40.667H9.86442V44ZM16.5145 44H15.5245V37.015H13.0715V36.146H18.9565V37.015H16.5145V44ZM19.0738 42.834V43.593H28.0828V42.834H19.0738ZM23.0998 40.458V43.054H24.0128V40.458H23.0998ZM20.1298 35.618V40.7H27.0048V35.618H26.1028V37.389H21.0318V35.618H20.1298ZM21.0318 38.126H26.1028V39.952H21.0318V38.126ZM28.632 39.644V40.381H37.619V39.644H28.632ZM33.12 41.239C30.997 41.239 29.71 41.899 29.71 43.043C29.71 44.187 30.997 44.836 33.12 44.836C35.243 44.836 36.53 44.187 36.53 43.043C36.53 41.899 35.243 41.239 33.12 41.239ZM33.12 41.965C34.682 41.965 35.606 42.35 35.606 43.043C35.606 43.725 34.682 44.121 33.12 44.121C31.569 44.121 30.634 43.725 30.634 43.043C30.634 42.35 31.569 41.965 33.12 41.965ZM32.537 35.816V36.113C32.537 37.235 30.92 38.126 29.138 38.324L29.468 39.039C31.525 38.797 33.351 37.708 33.351 36.113V35.816H32.537ZM32.922 35.816V36.113C32.922 37.708 34.737 38.797 36.794 39.039L37.124 38.324C35.342 38.126 33.725 37.235 33.725 36.113V35.816H32.922ZM29.457 35.42V36.157H36.816V35.42H29.457ZM43.1731 38.28V39.028H45.9451V38.28H43.1731ZM40.7751 35.772V37.543C40.7751 39.391 39.6531 41.305 38.1901 42.031L38.7731 42.757C40.3461 41.91 41.5231 39.776 41.5231 37.543V35.772H40.7751ZM40.9511 35.772V37.543C40.9511 39.721 42.1061 41.767 43.7121 42.581L44.2511 41.844C42.8101 41.162 41.6881 39.358 41.6881 37.543V35.772H40.9511ZM45.4941 34.903V44.869H46.3961V34.903H45.4941Z" fill="#292929"/>
<path d="M23.0244 0.82184C23.205 0.595858 23.4286 0.407941 23.6823 0.268967C23.936 0.129993 24.2148 0.042722 24.5025 0.0122056C24.7901 -0.0183107 25.081 0.00853357 25.3582 0.0911849C25.6354 0.173836 25.8935 0.310653 26.1175 0.493715L33.2531 6.32122C33.6455 6.64162 33.9146 7.0883 34.0143 7.58499C34.1141 8.08168 34.0383 8.5976 33.8 9.04465C33.1761 8.85399 32.5273 8.7574 31.875 8.75809H31.2188L31.8706 8.01434L28.1125 4.94528L25.0128 8.76028H22.1931L26.4172 3.56278L24.7328 2.18684L19.4872 8.75809H16.6872L23.0244 0.82184ZM28.5938 19.6956C28.3037 19.6956 28.0255 19.8108 27.8204 20.0159C27.6152 20.2211 27.5 20.4993 27.5 20.7893C27.5 21.0794 27.6152 21.3576 27.8204 21.5627C28.0255 21.7679 28.3037 21.8831 28.5938 21.8831H30.7812C31.0713 21.8831 31.3495 21.7679 31.5546 21.5627C31.7598 21.3576 31.875 21.0794 31.875 20.7893C31.875 20.4993 31.7598 20.2211 31.5546 20.0159C31.3495 19.8108 31.0713 19.6956 30.7812 19.6956H28.5938ZM12.1875 9.85184C12.1875 9.56176 12.3027 9.28356 12.5079 9.07844C12.713 8.87332 12.9912 8.75809 13.2812 8.75809H14.5019L16.2409 6.57059H13.2812C12.411 6.57059 11.5764 6.91629 10.9611 7.53165C10.3457 8.147 10 8.9816 10 9.85184V22.9768C10 24.4272 10.5762 25.8182 11.6018 26.8438C12.6273 27.8694 14.0183 28.4456 15.4688 28.4456H31.875C33.0353 28.4456 34.1481 27.9847 34.9686 27.1642C35.7891 26.3437 36.25 25.2309 36.25 24.0706V15.3206C36.25 14.1603 35.7891 13.0475 34.9686 12.227C34.1481 11.4065 33.0353 10.9456 31.875 10.9456H13.2812C12.9912 10.9456 12.713 10.8304 12.5079 10.6252C12.3027 10.4201 12.1875 10.1419 12.1875 9.85184ZM12.1875 22.9768V12.9472C12.5287 13.0675 12.8984 13.1331 13.2812 13.1331H31.875C32.4552 13.1331 33.0116 13.3636 33.4218 13.7738C33.832 14.184 34.0625 14.7404 34.0625 15.3206V24.0706C34.0625 24.6508 33.832 25.2071 33.4218 25.6174C33.0116 26.0276 32.4552 26.2581 31.875 26.2581H15.4688C14.5985 26.2581 13.7639 25.9124 13.1486 25.297C12.5332 24.6817 12.1875 23.8471 12.1875 22.9768Z" fill="#444444"/>
</svg>
