<svg width="33" height="51" viewBox="0 0 33 51" fill="none" xmlns="http://www.w3.org/2000/svg">
<path d="M13.654 40.707V41.466H16.195V40.707H13.654ZM15.81 38.914V44.04H16.723V38.914H15.81ZM10.321 44.557V45.283H15.821V46.251H10.354V48.44H11.245V46.933H16.723V44.557H10.321ZM10.354 48V48.726H17.097V48H10.354ZM11.025 39.222V40.157C11.025 41.598 10.035 42.841 8.539 43.347L9.012 44.073C10.673 43.479 11.773 41.994 11.773 40.157V39.222H11.025ZM11.179 39.222V40.157C11.179 41.84 12.279 43.27 13.885 43.842L14.358 43.127C12.917 42.654 11.916 41.455 11.916 40.157V39.222H11.179ZM23.4211 41.488V42.247H25.6651V41.488H23.4211ZM25.3791 38.914V44.843H26.2921V38.914H25.3791ZM23.0251 45.14C20.9681 45.14 19.7031 45.833 19.7031 46.999C19.7031 48.176 20.9681 48.847 23.0251 48.847C25.0711 48.847 26.3361 48.176 26.3361 46.999C26.3361 45.833 25.0711 45.14 23.0251 45.14ZM23.0251 45.855C24.5211 45.855 25.4341 46.273 25.4341 46.999C25.4341 47.714 24.5211 48.132 23.0251 48.132C21.5291 48.132 20.6161 47.714 20.6161 46.999C20.6161 46.273 21.5291 45.855 23.0251 45.855ZM20.6491 39.915V40.718C20.6491 42.148 19.6261 43.479 18.1521 44.018L18.6251 44.744C20.2751 44.128 21.3971 42.555 21.3971 40.718V39.915H20.6491ZM20.8251 39.915V40.718C20.8251 42.39 21.8921 43.886 23.5091 44.469L23.9711 43.743C22.5301 43.237 21.5621 42.005 21.5621 40.718V39.915H20.8251ZM18.4271 39.64V40.388H23.7401V39.64H18.4271Z" fill="#292929"/>
<path d="M27.8437 17.2837V15.7059L29.8237 13.9734C30.1887 13.6517 30.4282 13.2114 30.4999 12.7302C30.5717 12.2489 30.4709 11.7579 30.2156 11.3437L27.7819 7.21874C27.601 6.90551 27.341 6.64535 27.0278 6.46434C26.7147 6.28334 26.3595 6.18786 25.9978 6.18749C25.7737 6.18577 25.5507 6.22061 25.3378 6.29062L22.8319 7.13624C22.3992 6.84874 21.9479 6.59035 21.4809 6.3628L20.955 3.76405C20.8607 3.28927 20.6024 2.86278 20.2253 2.55925C19.8483 2.25571 19.3765 2.09447 18.8925 2.10374H14.0662C13.5823 2.09447 13.1105 2.25571 12.7334 2.55925C12.3563 2.86278 12.098 3.28927 12.0037 3.76405L11.4778 6.3628C11.0075 6.5903 10.5527 6.84868 10.1165 7.13624L7.66217 6.24937C7.44695 6.19329 7.22407 6.1724 7.00217 6.18749C6.64049 6.18786 6.28526 6.28334 5.97212 6.46434C5.65899 6.64535 5.39895 6.90551 5.21811 7.21874L2.78436 11.3437C2.54365 11.7573 2.45421 12.2416 2.53134 12.7138C2.60848 13.186 2.84739 13.6167 3.20717 13.9322L5.15624 15.7162V17.2941L3.20717 19.0266C2.83723 19.3442 2.59178 19.7826 2.51438 20.264C2.43698 20.7454 2.53263 21.2387 2.78436 21.6562L5.21811 25.7812C5.39895 26.0945 5.65899 26.3546 5.97212 26.5356C6.28526 26.7166 6.64049 26.8121 7.00217 26.8125C7.22632 26.8142 7.44924 26.7794 7.66217 26.7094L10.1681 25.8637C10.6008 26.1512 11.0521 26.4096 11.519 26.6372L12.045 29.2359C12.1393 29.7107 12.3976 30.1372 12.7746 30.4407C13.1517 30.7443 13.6235 30.9055 14.1075 30.8962H18.975C19.459 30.9055 19.9308 30.7443 20.3078 30.4407C20.6849 30.1372 20.9432 29.7107 21.0375 29.2359L21.5634 26.6372C22.0337 26.4097 22.4885 26.1513 22.9247 25.8637L25.4203 26.7094C25.6332 26.7794 25.8562 26.8142 26.0803 26.8125C26.442 26.8121 26.7972 26.7166 27.1103 26.5356C27.4235 26.3546 27.6835 26.0945 27.8644 25.7812L30.2156 21.6562C30.4563 21.2427 30.5458 20.7584 30.4686 20.2862C30.3915 19.8139 30.1526 19.3832 29.7928 19.0678L27.8437 17.2837ZM25.9978 24.75L22.4606 23.5537C21.6326 24.2551 20.6862 24.8034 19.6659 25.1728L18.9337 28.875H14.0662L13.334 25.2141C12.3218 24.8341 11.3806 24.2868 10.5497 23.595L7.00217 24.75L4.56842 20.625L7.37342 18.15C7.18274 17.0825 7.18274 15.9897 7.37342 14.9222L4.56842 12.375L7.00217 8.24999L10.5394 9.44624C11.3674 8.74488 12.3137 8.19663 13.334 7.82718L14.0662 4.12499H18.9337L19.6659 7.78593C20.6782 8.16587 21.6194 8.71317 22.4503 9.40499L25.9978 8.24999L28.4315 12.375L25.6265 14.85C25.8172 15.9175 25.8172 17.0103 25.6265 18.0778L28.4315 20.625L25.9978 24.75Z" fill="#444444"/>
<path d="M16.5 22.6875C15.2762 22.6875 14.0799 22.3246 13.0624 21.6447C12.0449 20.9648 11.2518 19.9985 10.7835 18.8679C10.3152 17.7372 10.1926 16.4931 10.4314 15.2929C10.6701 14.0926 11.2594 12.9901 12.1248 12.1248C12.9901 11.2594 14.0926 10.6701 15.2929 10.4314C16.4931 10.1926 17.7372 10.3152 18.8679 10.7835C19.9985 11.2518 20.9648 12.0449 21.6447 13.0624C22.3246 14.0799 22.6875 15.2762 22.6875 16.5C22.6958 17.3149 22.5414 18.1232 22.2334 18.8776C21.9253 19.632 21.4699 20.3174 20.8937 20.8937C20.3174 21.4699 19.632 21.9253 18.8776 22.2334C18.1232 22.5414 17.3149 22.6958 16.5 22.6875ZM16.5 12.375C15.9548 12.3623 15.4127 12.4603 14.9065 12.6631C14.4003 12.8659 13.9405 13.1693 13.5549 13.5549C13.1693 13.9405 12.8659 14.4003 12.6631 14.9065C12.4603 15.4127 12.3623 15.9548 12.375 16.5C12.3623 17.0452 12.4603 17.5873 12.6631 18.0935C12.8659 18.5997 13.1693 19.0595 13.5549 19.4451C13.9405 19.8307 14.4003 20.1341 14.9065 20.3369C15.4127 20.5397 15.9548 20.6377 16.5 20.625C17.0452 20.6377 17.5873 20.5397 18.0935 20.3369C18.5997 20.1341 19.0595 19.8307 19.4451 19.4451C19.8307 19.0595 20.1341 18.5997 20.3369 18.0935C20.5397 17.5873 20.6377 17.0452 20.625 16.5C20.6377 15.9548 20.5397 15.4127 20.3369 14.9065C20.1341 14.4003 19.8307 13.9405 19.4451 13.5549C19.0595 13.1693 18.5997 12.8659 18.0935 12.6631C17.5873 12.4603 17.0452 12.3623 16.5 12.375Z" fill="#444444"/>
</svg>
