<svg width="6" height="15" viewBox="0 0 6 15" fill="none" xmlns="http://www.w3.org/2000/svg">
<path d="M0.13356 0.291541C0.0479359 0.405048 0 0.557423 0 0.716092C0 0.874761 0.0479359 1.02714 0.13356 1.14064L4.91726 7.49492L0.13356 13.8479C0.0479359 13.9614 0 14.1138 0 14.2725C0 14.4311 0.0479359 14.5835 0.13356 14.697C0.175179 14.7524 0.22494 14.7964 0.279905 14.8264C0.33487 14.8564 0.393925 14.8719 0.453586 14.8719C0.513246 14.8719 0.572302 14.8564 0.627267 14.8264C0.682232 14.7964 0.731993 14.7524 0.773612 14.697L5.86065 7.93854C5.95 7.81985 6 7.66066 6 7.49492C6 7.32918 5.95 7.16999 5.86065 7.0513L0.773612 0.292812C0.731993 0.237464 0.682232 0.193472 0.627267 0.163434C0.572302 0.133396 0.513246 0.11792 0.453586 0.11792C0.393925 0.11792 0.33487 0.133396 0.279905 0.163434C0.22494 0.193472 0.175179 0.237464 0.13356 0.292812V0.291541Z" fill="#666666"/>
</svg>
