<svg width="8" height="15" viewBox="0 0 8 15" fill="none" xmlns="http://www.w3.org/2000/svg">
<path d="M0.172166 0.176516C0.0617919 0.291916 0 0.446831 0 0.608145C0 0.76946 0.0617919 0.924375 0.172166 1.03977L6.33861 7.5L0.172166 13.9589C0.0617919 14.0743 0 14.2292 0 14.3906C0 14.5519 0.0617919 14.7068 0.172166 14.8222C0.225815 14.8785 0.289959 14.9232 0.360812 14.9537C0.431665 14.9843 0.507791 15 0.584696 15C0.661601 15 0.737727 14.9843 0.80858 14.9537C0.879433 14.9232 0.943577 14.8785 0.997226 14.8222L7.55469 7.95101C7.66986 7.83035 7.73432 7.66851 7.73432 7.5C7.73432 7.33149 7.66986 7.16965 7.55469 7.04899L0.997226 0.177808C0.943577 0.121537 0.879433 0.0768117 0.80858 0.0462728C0.737727 0.0157338 0.661601 0 0.584696 0C0.507791 0 0.431665 0.0157338 0.360812 0.0462728C0.289959 0.0768117 0.225815 0.121537 0.172166 0.177808V0.176516Z" fill="#666666"/>
</svg>
